Gabriela-Regular.ufo
<glyph name="dollar" format="1">
  <advance width="581"/>
  <unicode hex="0024"/>
  <outline>
    <contour>
      <point x="217" y="56"/>
      <point x="152" y="96"/>
      <point x="152" y="170" type="curve" smooth="yes"/>
      <point x="152" y="223"/>
      <point x="182" y="247"/>
      <point x="182" y="256" type="curve" smooth="yes"/>
      <point x="182" y="268"/>
      <point x="176" y="268"/>
      <point x="161" y="268" type="curve" smooth="yes"/>
      <point x="100" y="268"/>
      <point x="54" y="225"/>
      <point x="54" y="162" type="curve" smooth="yes"/>
      <point x="54" y="64"/>
      <point x="147" y="10"/>
      <point x="253" y="1" type="curve"/>
      <point x="253" y="-153" type="line"/>
      <point x="275" y="-153"/>
      <point x="303" y="-147"/>
      <point x="316" y="-129" type="curve"/>
      <point x="316" y="1" type="line"/>
      <point x="433" y="12"/>
      <point x="509" y="87"/>
      <point x="509" y="186" type="curve" smooth="yes"/>
      <point x="509" y="420"/>
      <point x="161" y="352"/>
      <point x="161" y="555" type="curve" smooth="yes"/>
      <point x="161" y="606"/>
      <point x="197" y="662"/>
      <point x="277" y="662" type="curve" smooth="yes"/>
      <point x="328" y="662"/>
      <point x="380" y="632"/>
      <point x="380" y="573" type="curve" smooth="yes"/>
      <point x="380" y="520"/>
      <point x="350" y="496"/>
      <point x="350" y="487" type="curve" smooth="yes"/>
      <point x="350" y="475"/>
      <point x="357" y="475"/>
      <point x="371" y="475" type="curve" smooth="yes"/>
      <point x="431" y="475"/>
      <point x="478" y="519"/>
      <point x="478" y="581" type="curve" smooth="yes"/>
      <point x="478" y="660"/>
      <point x="404" y="705"/>
      <point x="316" y="715" type="curve"/>
      <point x="316" y="872" type="line"/>
      <point x="295" y="872"/>
      <point x="267" y="866"/>
      <point x="253" y="848" type="curve"/>
      <point x="253" y="717" type="line"/>
      <point x="124" y="708"/>
      <point x="66" y="614"/>
      <point x="66" y="529" type="curve" smooth="yes"/>
      <point x="66" y="285"/>
      <point x="408" y="334"/>
      <point x="408" y="169" type="curve" smooth="yes"/>
      <point x="408" y="97"/>
      <point x="349" y="56"/>
      <point x="286" y="56" type="curve" smooth="yes"/>
    </contour>
  </outline>
</glyph>
<glyph name="quotesingle" format="1">
  <advance width="178"/>
  <unicode hex="0027"/>
  <outline>
    <contour>
      <point x="67" y="834"/>
      <point x="50" y="824"/>
      <point x="38" y="804" type="curve"/>
      <point x="38" y="761"/>
      <point x="52" y="662"/>
      <point x="69" y="591" type="curve" smooth="yes"/>
      <point x="72" y="579"/>
      <point x="77" y="572"/>
      <point x="89" y="572" type="curve" smooth="yes"/>
      <point x="101" y="572"/>
      <point x="106" y="579"/>
      <point x="109" y="591" type="curve" smooth="yes"/>
      <point x="129" y="675"/>
      <point x="140" y="768"/>
      <point x="140" y="804" type="curve"/>
      <point x="128" y="824"/>
      <point x="110" y="834"/>
      <point x="89" y="834" type="curve" smooth="yes"/>
    </contour>
  </outline>
</glyph>
<glyph name="comma" format="1">
  <advance width="191"/>
  <unicode hex="002C"/>
  <outline>
    <contour>
      <point x="19" y="100" type="line"/>
      <point x="24" y="76" type="line"/>
      <point x="42" y="64" type="line" smooth="yes"/>
      <point x="57" y="53"/>
      <point x="65" y="42"/>
      <point x="65" y="27" type="curve" smooth="yes"/>
      <point x="65" y="16"/>
      <point x="61" y="2"/>
      <point x="53" y="-14" type="curve" smooth="yes"/>
      <point x="7" y="-104" type="line"/>
      <point x="36" y="-123" type="line"/>
      <point x="75" y="-81" type="line" smooth="yes"/>
      <point x="122" y="-31"/>
      <point x="157" y="11"/>
      <point x="157" y="52" type="curve" smooth="yes"/>
      <point x="157" y="101"/>
      <point x="128" y="119"/>
      <point x="92" y="119" type="curve" smooth="yes"/>
      <point x="74" y="119"/>
      <point x="54" y="114"/>
      <point x="36" y="107" type="curve" smooth="yes"/>
    </contour>
  </outline>
</glyph>
<glyph name="hyphen" format="1">
  <advance width="355"/>
  <unicode hex="002D"/>
  <outline>
    <contour>
      <point x="296" y="262" type="line"/>
      <point x="316" y="277"/>
      <point x="322" y="308"/>
      <point x="322" y="332" type="curve"/>
      <point x="59" y="322" type="line"/>
      <point x="40" y="307"/>
      <point x="33" y="276"/>
      <point x="33" y="252" type="curve"/>
    </contour>
  </outline>
</glyph>
<glyph name="slash" format="1">
  <advance width="371"/>
  <unicode hex="002F"/>
  <outline>
    <contour>
      <point x="71" y="-63" type="line"/>
      <point x="371" y="781" type="line"/>
      <point x="299" y="781" type="line"/>
      <point x="0" y="-63" type="line"/>
    </contour>
  </outline>
</glyph>
<glyph name="one" format="1">
  <advance width="418"/>
  <unicode hex="0031"/>
  <outline>
    <contour>
      <point x="291" y="680" type="line"/>
      <point x="317" y="697" type="line"/>
      <point x="309" y="712"/>
      <point x="296" y="729"/>
      <point x="277" y="734" type="curve"/>
      <point x="0" y="605" type="line"/>
      <point x="13" y="577"/>
      <point x="38" y="543"/>
      <point x="69" y="537" type="curve"/>
      <point x="192" y="615" type="line"/>
      <point x="192" y="133" type="line" smooth="yes"/>
      <point x="192" y="71"/>
      <point x="179" y="58"/>
      <point x="128" y="45" type="curve" smooth="yes"/>
      <point x="85" y="34" type="line"/>
      <point x="97" y="0" type="line"/>
      <point x="336" y="0" type="line"/>
      <point x="349" y="16" type="line"/>
      <point x="336" y="34" type="line" smooth="yes"/>
      <point x="303" y="78"/>
      <point x="291" y="120"/>
      <point x="291" y="201" type="curve" smooth="yes"/>
    </contour>
  </outline>
</glyph>
<glyph name="four" format="1">
  <advance width="608"/>
  <unicode hex="0034"/>
  <outline>
    <contour>
      <point x="555" y="162" type="line"/>
      <point x="573" y="176"/>
      <point x="578" y="203"/>
      <point x="578" y="225" type="curve"/>
      <point x="485" y="225" type="line"/>
      <point x="485" y="479" type="line"/>
      <point x="375" y="467" type="line"/>
      <point x="363" y="452" type="line"/>
      <point x="381" y="423"/>
      <point x="385" y="403"/>
      <point x="385" y="361" type="curve" smooth="yes"/>
      <point x="385" y="225" type="line"/>
      <point x="128" y="225" type="line"/>
      <point x="344" y="702" type="line"/>
      <point x="325" y="718" type="line"/>
      <point x="262" y="718" type="line"/>
      <point x="30" y="162" type="line"/>
      <point x="385" y="162" type="line"/>
      <point x="385" y="133" type="line" smooth="yes"/>
      <point x="385" y="71"/>
      <point x="373" y="58"/>
      <point x="322" y="45" type="curve" smooth="yes"/>
      <point x="279" y="34" type="line"/>
      <point x="291" y="0" type="line"/>
      <point x="530" y="0" type="line"/>
      <point x="543" y="16" type="line"/>
      <point x="530" y="34" type="line" smooth="yes"/>
      <point x="503" y="70"/>
      <point x="489" y="105"/>
      <point x="486" y="162" type="curve"/>
    </contour>
  </outline>
</glyph>
<glyph name="eight" format="1">
  <advance width="616"/>
  <unicode hex="0038"/>
  <outline>
    <contour>
      <point x="544" y="683"/>
      <point x="435" y="735"/>
      <point x="301" y="735" type="curve" smooth="yes"/>
      <point x="143" y="735"/>
      <point x="72" y="634"/>
      <point x="72" y="532" type="curve" smooth="yes"/>
      <point x="72" y="446"/>
      <point x="112" y="395"/>
      <point x="187" y="354" type="curve"/>
      <point x="122" y="315"/>
      <point x="54" y="254"/>
      <point x="54" y="166" type="curve" smooth="yes"/>
      <point x="54" y="34"/>
      <point x="165" y="-17"/>
      <point x="300" y="-17" type="curve" smooth="yes"/>
      <point x="464" y="-17"/>
      <point x="562" y="62"/>
      <point x="562" y="179" type="curve" smooth="yes"/>
      <point x="562" y="262"/>
      <point x="517" y="324"/>
      <point x="421" y="373" type="curve"/>
      <point x="483" y="411"/>
      <point x="544" y="470"/>
      <point x="544" y="551" type="curve" smooth="yes"/>
    </contour>
    <contour>
      <point x="342" y="284" type="line" smooth="yes"/>
      <point x="417" y="251"/>
      <point x="452" y="221"/>
      <point x="452" y="153" type="curve" smooth="yes"/>
      <point x="452" y="80"/>
      <point x="388" y="39"/>
      <point x="301" y="39" type="curve" smooth="yes"/>
      <point x="211" y="39"/>
      <point x="160" y="94"/>
      <point x="160" y="169" type="curve" smooth="yes"/>
      <point x="160" y="219"/>
      <point x="184" y="277"/>
      <point x="235" y="331" type="curve"/>
    </contour>
    <contour>
      <point x="387" y="679"/>
      <point x="436" y="625"/>
      <point x="436" y="552" type="curve" smooth="yes"/>
      <point x="436" y="504"/>
      <point x="414" y="450"/>
      <point x="369" y="398" type="curve"/>
      <point x="307" y="426" type="line" smooth="yes"/>
      <point x="208" y="470"/>
      <point x="175" y="508"/>
      <point x="175" y="562" type="curve" smooth="yes"/>
      <point x="175" y="622"/>
      <point x="225" y="679"/>
      <point x="301" y="679" type="curve" smooth="yes"/>
    </contour>
  </outline>
</glyph>
<glyph name="nine" format="1">
  <advance width="646"/>
  <unicode hex="0039"/>
  <outline>
    <contour>
      <point x="158" y="732"/>
      <point x="77" y="605"/>
      <point x="77" y="485" type="curve" smooth="yes"/>
      <point x="77" y="378"/>
      <point x="143" y="276"/>
      <point x="272" y="276" type="curve" smooth="yes"/>
      <point x="366" y="276"/>
      <point x="434" y="323"/>
      <point x="467" y="391" type="curve"/>
      <point x="468" y="374"/>
      <point x="468" y="356"/>
      <point x="468" y="337" type="curve" smooth="yes"/>
      <point x="468" y="193"/>
      <point x="426" y="43"/>
      <point x="291" y="43" type="curve" smooth="yes"/>
      <point x="232" y="43"/>
      <point x="190" y="77"/>
      <point x="190" y="132" type="curve" smooth="yes"/>
      <point x="190" y="173"/>
      <point x="215" y="196"/>
      <point x="215" y="205" type="curve" smooth="yes"/>
      <point x="215" y="213"/>
      <point x="208" y="217"/>
      <point x="193" y="217" type="curve" smooth="yes"/>
      <point x="135" y="217"/>
      <point x="93" y="181"/>
      <point x="93" y="126" type="curve" smooth="yes"/>
      <point x="93" y="44"/>
      <point x="176" y="-14"/>
      <point x="292" y="-14" type="curve" smooth="yes"/>
      <point x="484" y="-14"/>
      <point x="574" y="143"/>
      <point x="574" y="340" type="curve" smooth="yes"/>
      <point x="574" y="554"/>
      <point x="502" y="732"/>
      <point x="321" y="732" type="curve" smooth="yes"/>
    </contour>
    <contour>
      <point x="237" y="348"/>
      <point x="197" y="427"/>
      <point x="197" y="507" type="curve" smooth="yes"/>
      <point x="197" y="587"/>
      <point x="240" y="667"/>
      <point x="329" y="667" type="curve" smooth="yes"/>
      <point x="412" y="667"/>
      <point x="454" y="586"/>
      <point x="454" y="506" type="curve" smooth="yes"/>
      <point x="454" y="427"/>
      <point x="410" y="348"/>
      <point x="318" y="348" type="curve" smooth="yes"/>
    </contour>
  </outline>
</glyph>
<glyph name="less" format="1">
  <advance width="621"/>
  <unicode hex="003C"/>
  <outline>
    <contour>
      <point x="99" y="319" type="line"/>
      <point x="522" y="148" type="line"/>
      <point x="522" y="224" type="line"/>
      <point x="184" y="357" type="line"/>
      <point x="522" y="490" type="line"/>
      <point x="522" y="566" type="line"/>
      <point x="99" y="395" type="line"/>
    </contour>
  </outline>
</glyph>
<glyph name="equal" format="1">
  <advance width="621"/>
  <unicode hex="003D"/>
  <outline>
    <contour>
      <point x="99" y="211" type="line"/>
      <point x="522" y="211" type="line"/>
      <point x="522" y="287" type="line"/>
      <point x="99" y="287" type="line"/>
    </contour>
    <contour>
      <point x="99" y="427" type="line"/>
      <point x="522" y="427" type="line"/>
      <point x="522" y="503" type="line"/>
      <point x="99" y="503" type="line"/>
    </contour>
  </outline>
</glyph>
<glyph name="greater" format="1">
  <advance width="621"/>
  <unicode hex="003E"/>
  <outline>
    <contour>
      <point x="522" y="395" type="line"/>
      <point x="99" y="566" type="line"/>
      <point x="99" y="490" type="line"/>
      <point x="437" y="357" type="line"/>
      <point x="99" y="224" type="line"/>
      <point x="99" y="148" type="line"/>
      <point x="522" y="319" type="line"/>
    </contour>
  </outline>
</glyph>
<glyph name="B" format="1">
  <advance width="651"/>
  <unicode hex="0042"/>
  <outline>
    <contour>
      <point x="559" y="643"/>
      <point x="481" y="732"/>
      <point x="288" y="732" type="curve" smooth="yes"/>
      <point x="195" y="732"/>
      <point x="91" y="708"/>
      <point x="40" y="688" type="curve"/>
      <point x="52" y="651" type="line"/>
      <point x="110" y="651" type="line" smooth="yes"/>
      <point x="125" y="651"/>
      <point x="132" y="645"/>
      <point x="132" y="627" type="curve" smooth="yes"/>
      <point x="132" y="133" type="line" smooth="yes"/>
      <point x="132" y="71"/>
      <point x="118" y="55"/>
      <point x="68" y="40" type="curve" smooth="yes"/>
      <point x="45" y="34" type="line"/>
      <point x="57" y="0" type="line"/>
      <point x="336" y="0" type="line" smooth="yes"/>
      <point x="526" y="0"/>
      <point x="596" y="83"/>
      <point x="596" y="197" type="curve" smooth="yes"/>
      <point x="596" y="269"/>
      <point x="544" y="334"/>
      <point x="454" y="364" type="curve"/>
      <point x="526" y="398"/>
      <point x="559" y="464"/>
      <point x="559" y="535" type="curve" smooth="yes"/>
    </contour>
    <contour>
      <point x="231" y="630" type="line" smooth="yes"/>
      <point x="231" y="648"/>
      <point x="238" y="676"/>
      <point x="298" y="676" type="curve" smooth="yes"/>
      <point x="404" y="676"/>
      <point x="460" y="614"/>
      <point x="460" y="533" type="curve" smooth="yes"/>
      <point x="460" y="447"/>
      <point x="409" y="387"/>
      <point x="317" y="387" type="curve" smooth="yes"/>
      <point x="286" y="387"/>
      <point x="275" y="394"/>
      <point x="267" y="394" type="curve" smooth="yes"/>
      <point x="257" y="394"/>
      <point x="253" y="386"/>
      <point x="253" y="376" type="curve" smooth="yes"/>
      <point x="253" y="368"/>
      <point x="257" y="359"/>
      <point x="268" y="354" type="curve" smooth="yes"/>
      <point x="282" y="347"/>
      <point x="309" y="341"/>
      <point x="333" y="341" type="curve" smooth="yes"/>
      <point x="432" y="341"/>
      <point x="492" y="277"/>
      <point x="492" y="202" type="curve" smooth="yes"/>
      <point x="492" y="115"/>
      <point x="438" y="52"/>
      <point x="342" y="52" type="curve" smooth="yes"/>
      <point x="303" y="52"/>
      <point x="231" y="58"/>
      <point x="231" y="183" type="curve" smooth="yes"/>
    </contour>
  </outline>
</glyph>
<glyph name="C" format="1">
  <advance width="617"/>
  <unicode hex="0043"/>
  <outline>
    <contour>
      <point x="139" y="732"/>
      <point x="35" y="564"/>
      <point x="35" y="358" type="curve" smooth="yes"/>
      <point x="35" y="153"/>
      <point x="139" y="-14"/>
      <point x="355" y="-14" type="curve" smooth="yes"/>
      <point x="461" y="-14"/>
      <point x="536" y="36"/>
      <point x="588" y="113" type="curve" smooth="yes"/>
      <point x="590" y="116"/>
      <point x="591" y="119"/>
      <point x="591" y="121" type="curve" smooth="yes"/>
      <point x="591" y="134"/>
      <point x="571" y="149"/>
      <point x="559" y="149" type="curve" smooth="yes"/>
      <point x="556" y="149"/>
      <point x="554" y="148"/>
      <point x="552" y="145" type="curve" smooth="yes"/>
      <point x="514" y="90"/>
      <point x="452" y="55"/>
      <point x="364" y="55" type="curve" smooth="yes"/>
      <point x="230" y="55"/>
      <point x="148" y="192"/>
      <point x="148" y="358" type="curve" smooth="yes"/>
      <point x="148" y="508"/>
      <point x="201" y="676"/>
      <point x="358" y="676" type="curve" smooth="yes"/>
      <point x="434" y="676"/>
      <point x="485" y="633"/>
      <point x="485" y="571" type="curve" smooth="yes"/>
      <point x="485" y="515"/>
      <point x="455" y="490"/>
      <point x="455" y="480" type="curve" smooth="yes"/>
      <point x="455" y="472"/>
      <point x="461" y="468"/>
      <point x="476" y="468" type="curve" smooth="yes"/>
      <point x="537" y="468"/>
      <point x="583" y="516"/>
      <point x="583" y="585" type="curve" smooth="yes"/>
      <point x="583" y="672"/>
      <point x="490" y="732"/>
      <point x="358" y="732" type="curve" smooth="yes"/>
    </contour>
  </outline>
</glyph>
<glyph name="F" format="1">
  <advance width="547"/>
  <unicode hex="0046"/>
  <outline>
    <contour>
      <point x="468" y="549" type="line"/>
      <point x="502" y="561" type="line"/>
      <point x="502" y="739" type="line"/>
      <point x="486" y="752" type="line"/>
      <point x="468" y="739" type="line" smooth="yes"/>
      <point x="448" y="724"/>
      <point x="412" y="718"/>
      <point x="354" y="718" type="curve" smooth="yes"/>
      <point x="58" y="718" type="line"/>
      <point x="45" y="702" type="line"/>
      <point x="58" y="684" type="line" smooth="yes"/>
      <point x="91" y="640"/>
      <point x="103" y="598"/>
      <point x="103" y="517" type="curve" smooth="yes"/>
      <point x="103" y="201" type="line" smooth="yes"/>
      <point x="103" y="120"/>
      <point x="91" y="78"/>
      <point x="58" y="34" type="curve" smooth="yes"/>
      <point x="45" y="16" type="line"/>
      <point x="58" y="0" type="line"/>
      <point x="277" y="0" type="line"/>
      <point x="289" y="34" type="line"/>
      <point x="266" y="40" type="line" smooth="yes"/>
      <point x="216" y="55"/>
      <point x="202" y="71"/>
      <point x="202" y="133" type="curve" smooth="yes"/>
      <point x="202" y="326" type="line"/>
      <point x="277" y="326" type="line" smooth="yes"/>
      <point x="348" y="326"/>
      <point x="374" y="316"/>
      <point x="386" y="269" type="curve" smooth="yes"/>
      <point x="392" y="246" type="line"/>
      <point x="426" y="258" type="line"/>
      <point x="426" y="429" type="line"/>
      <point x="406" y="440" type="line"/>
      <point x="398" y="429" type="line" smooth="yes"/>
      <point x="373" y="394"/>
      <point x="350" y="383"/>
      <point x="319" y="383" type="curve" smooth="yes"/>
      <point x="202" y="383" type="line"/>
      <point x="202" y="585" type="line" smooth="yes"/>
      <point x="202" y="647"/>
      <point x="214" y="661"/>
      <point x="266" y="661" type="curve" smooth="yes"/>
      <point x="353" y="661" type="line" smooth="yes"/>
      <point x="424" y="661"/>
      <point x="443" y="643"/>
      <point x="462" y="572" type="curve" smooth="yes"/>
    </contour>
  </outline>
</glyph>
<glyph name="I" format="1">
  <advance width="353"/>
  <unicode hex="0049"/>
  <outline>
    <contour>
      <point x="297" y="0" type="line"/>
      <point x="308" y="32" type="line"/>
      <point x="287" y="38" type="line" smooth="yes"/>
      <point x="239" y="52"/>
      <point x="226" y="67"/>
      <point x="226" y="126" type="curve" smooth="yes"/>
      <point x="226" y="517" type="line" smooth="yes"/>
      <point x="226" y="598"/>
      <point x="238" y="640"/>
      <point x="271" y="684" type="curve" smooth="yes"/>
      <point x="284" y="702" type="line"/>
      <point x="271" y="718" type="line"/>
      <point x="52" y="718" type="line"/>
      <point x="40" y="684" type="line"/>
      <point x="63" y="678" type="line" smooth="yes"/>
      <point x="113" y="663"/>
      <point x="127" y="647"/>
      <point x="127" y="585" type="curve" smooth="yes"/>
      <point x="127" y="133" type="line" smooth="yes"/>
      <point x="127" y="71"/>
      <point x="113" y="55"/>
      <point x="63" y="40" type="curve" smooth="yes"/>
      <point x="40" y="34" type="line"/>
      <point x="52" y="0" type="line"/>
    </contour>
    <contour>
      <point x="318" y="10" type="move" name="ogonek"/>
    </contour>
    <contour>
      <point x="177" y="718" type="move" name="top"/>
    </contour>
    <contour>
      <point x="20" y="718" type="move" name="topleft"/>
    </contour>
    <contour>
      <point x="177" y="0" type="move" name="bottom"/>
    </contour>
  </outline>
</glyph>
<glyph name="J" format="1">
  <advance width="469"/>
  <unicode hex="004A"/>
  <outline>
    <contour>
      <point x="272" y="175" type="line" smooth="yes"/>
      <point x="272" y="65"/>
      <point x="223" y="38"/>
      <point x="169" y="38" type="curve" smooth="yes"/>
      <point x="110" y="38"/>
      <point x="77" y="80"/>
      <point x="77" y="131" type="curve" smooth="yes"/>
      <point x="77" y="204"/>
      <point x="126" y="226"/>
      <point x="126" y="239" type="curve" smooth="yes"/>
      <point x="126" y="244"/>
      <point x="121" y="250"/>
      <point x="107" y="250" type="curve" smooth="yes"/>
      <point x="24" y="250"/>
      <point x="-20" y="191"/>
      <point x="-20" y="129" type="curve" smooth="yes"/>
      <point x="-20" y="59"/>
      <point x="39" y="-14"/>
      <point x="162" y="-14" type="curve" smooth="yes"/>
      <point x="285" y="-14"/>
      <point x="371" y="55"/>
      <point x="371" y="236" type="curve" smooth="yes"/>
      <point x="371" y="517" type="line" smooth="yes"/>
      <point x="371" y="598"/>
      <point x="383" y="640"/>
      <point x="416" y="684" type="curve" smooth="yes"/>
      <point x="429" y="702" type="line"/>
      <point x="416" y="718" type="line"/>
      <point x="197" y="718" type="line"/>
      <point x="185" y="684" type="line"/>
      <point x="208" y="678" type="line" smooth="yes"/>
      <point x="258" y="663"/>
      <point x="272" y="647"/>
      <point x="272" y="585" type="curve" smooth="yes"/>
    </contour>
  </outline>
</glyph>
<glyph name="M" format="1">
  <advance width="921"/>
  <unicode hex="004D"/>
  <outline>
    <contour>
      <point x="787" y="468" type="line" smooth="yes"/>
      <point x="786" y="483"/>
      <point x="782" y="546"/>
      <point x="782" y="558" type="curve" smooth="yes"/>
      <point x="782" y="614"/>
      <point x="793" y="648"/>
      <point x="818" y="684" type="curve" smooth="yes"/>
      <point x="830" y="702" type="line"/>
      <point x="815" y="718" type="line"/>
      <point x="671" y="718" type="line"/>
      <point x="459" y="215" type="line"/>
      <point x="253" y="718" type="line"/>
      <point x="71" y="718" type="line"/>
      <point x="60" y="684" type="line"/>
      <point x="83" y="678" type="line" smooth="yes"/>
      <point x="127" y="667"/>
      <point x="141" y="652"/>
      <point x="141" y="606" type="curve" smooth="yes"/>
      <point x="141" y="590"/>
      <point x="137" y="537"/>
      <point x="136" y="529" type="curve" smooth="yes"/>
      <point x="109" y="133" type="line" smooth="yes"/>
      <point x="105" y="71"/>
      <point x="89" y="55"/>
      <point x="38" y="40" type="curve" smooth="yes"/>
      <point x="15" y="34" type="line"/>
      <point x="26" y="0" type="line"/>
      <point x="214" y="0" type="line"/>
      <point x="229" y="16" type="line"/>
      <point x="217" y="34" type="line" smooth="yes"/>
      <point x="192" y="70"/>
      <point x="181" y="104"/>
      <point x="181" y="160" type="curve" smooth="yes"/>
      <point x="181" y="172"/>
      <point x="184" y="223"/>
      <point x="187" y="258" type="curve" smooth="yes"/>
      <point x="209" y="566" type="line"/>
      <point x="418" y="72" type="line"/>
      <point x="472" y="72" type="line"/>
      <point x="681" y="566" type="line"/>
      <point x="710" y="149" type="line" smooth="yes"/>
      <point x="711" y="138"/>
      <point x="712" y="121"/>
      <point x="712" y="112" type="curve" smooth="yes"/>
      <point x="712" y="71"/>
      <point x="698" y="53"/>
      <point x="655" y="40" type="curve" smooth="yes"/>
      <point x="632" y="34" type="line"/>
      <point x="644" y="0" type="line"/>
      <point x="863" y="0" type="line"/>
      <point x="876" y="16" type="line"/>
      <point x="831" y="61"/>
      <point x="813" y="113"/>
      <point x="807" y="194" type="curve" smooth="yes"/>
    </contour>
  </outline>
</glyph>
<glyph name="N" format="1">
  <advance width="779"/>
  <unicode hex="004E"/>
  <outline>
    <contour>
      <point x="572" y="0" type="line"/>
      <point x="673" y="0" type="line"/>
      <point x="686" y="16" type="line"/>
      <point x="673" y="34" type="line" smooth="yes"/>
      <point x="663" y="48"/>
      <point x="659" y="62"/>
      <point x="659" y="88" type="curve" smooth="yes"/>
      <point x="659" y="517" type="line" smooth="yes"/>
      <point x="659" y="598"/>
      <point x="671" y="640"/>
      <point x="704" y="684" type="curve" smooth="yes"/>
      <point x="717" y="702" type="line"/>
      <point x="704" y="718" type="line"/>
      <point x="514" y="718" type="line"/>
      <point x="502" y="684" type="line"/>
      <point x="525" y="678" type="line" smooth="yes"/>
      <point x="575" y="663"/>
      <point x="589" y="647"/>
      <point x="589" y="585" type="curve" smooth="yes"/>
      <point x="589" y="151" type="line"/>
      <point x="207" y="718" type="line"/>
      <point x="46" y="718" type="line"/>
      <point x="34" y="684" type="line"/>
      <point x="57" y="678" type="line" smooth="yes"/>
      <point x="107" y="663"/>
      <point x="121" y="647"/>
      <point x="121" y="585" type="curve" smooth="yes"/>
      <point x="121" y="133" type="line" smooth="yes"/>
      <point x="121" y="71"/>
      <point x="107" y="55"/>
      <point x="57" y="40" type="curve" smooth="yes"/>
      <point x="34" y="34" type="line"/>
      <point x="46" y="0" type="line"/>
      <point x="236" y="0" type="line"/>
      <point x="249" y="16" type="line"/>
      <point x="236" y="34" type="line" smooth="yes"/>
      <point x="203" y="78"/>
      <point x="191" y="120"/>
      <point x="191" y="201" type="curve" smooth="yes"/>
      <point x="191" y="565" type="line"/>
    </contour>
  </outline>
</glyph>
<glyph name="P" format="1">
  <advance width="596"/>
  <unicode hex="0050"/>
  <outline>
    <contour>
      <point x="226" y="630" type="line" smooth="yes"/>
      <point x="226" y="648"/>
      <point x="234" y="676"/>
      <point x="302" y="676" type="curve" smooth="yes"/>
      <point x="414" y="676"/>
      <point x="472" y="595"/>
      <point x="472" y="491" type="curve" smooth="yes"/>
      <point x="472" y="384"/>
      <point x="415" y="313"/>
      <point x="313" y="313" type="curve" smooth="yes"/>
      <point x="283" y="313"/>
      <point x="272" y="320"/>
      <point x="264" y="320" type="curve" smooth="yes"/>
      <point x="253" y="320"/>
      <point x="248" y="308"/>
      <point x="248" y="296" type="curve" smooth="yes"/>
      <point x="248" y="272"/>
      <point x="291" y="261"/>
      <point x="336" y="261" type="curve" smooth="yes"/>
      <point x="502" y="261"/>
      <point x="576" y="369"/>
      <point x="576" y="494" type="curve" smooth="yes"/>
      <point x="576" y="624"/>
      <point x="492" y="732"/>
      <point x="284" y="732" type="curve" smooth="yes"/>
      <point x="190" y="732"/>
      <point x="86" y="708"/>
      <point x="35" y="688" type="curve"/>
      <point x="47" y="651" type="line"/>
      <point x="105" y="651" type="line" smooth="yes"/>
      <point x="120" y="651"/>
      <point x="127" y="645"/>
      <point x="127" y="627" type="curve" smooth="yes"/>
      <point x="127" y="133" type="line" smooth="yes"/>
      <point x="127" y="72"/>
      <point x="113" y="53"/>
      <point x="63" y="40" type="curve" smooth="yes"/>
      <point x="40" y="34" type="line"/>
      <point x="52" y="0" type="line"/>
      <point x="271" y="0" type="line"/>
      <point x="284" y="16" type="line"/>
      <point x="271" y="34" type="line" smooth="yes"/>
      <point x="238" y="78"/>
      <point x="226" y="119"/>
      <point x="226" y="201" type="curve" smooth="yes"/>
    </contour>
  </outline>
</glyph>
<glyph name="Q" format="1">
  <advance width="733"/>
  <unicode hex="0051"/>
  <outline>
    <contour>
      <point x="35" y="152"/>
      <point x="142" y="-14"/>
      <point x="366" y="-14" type="curve" smooth="yes"/>
      <point x="411" y="-14"/>
      <point x="451" y="-7"/>
      <point x="487" y="5" type="curve"/>
      <point x="526" y="-80" type="line" smooth="yes"/>
      <point x="559" y="-154"/>
      <point x="606" y="-222"/>
      <point x="690" y="-222" type="curve" smooth="yes"/>
      <point x="737" y="-222"/>
      <point x="783" y="-189"/>
      <point x="783" y="-139" type="curve" smooth="yes"/>
      <point x="783" y="-134"/>
      <point x="780" y="-129"/>
      <point x="774" y="-129" type="curve" smooth="yes"/>
      <point x="766" y="-129"/>
      <point x="749" y="-142"/>
      <point x="719" y="-142" type="curve" smooth="yes"/>
      <point x="670" y="-142"/>
      <point x="638" y="-119"/>
      <point x="614" y="-65" type="curve" smooth="yes"/>
      <point x="564" y="46" type="line"/>
      <point x="654" y="112"/>
      <point x="698" y="227"/>
      <point x="698" y="358" type="curve" smooth="yes"/>
      <point x="698" y="564"/>
      <point x="589" y="732"/>
      <point x="366" y="732" type="curve" smooth="yes"/>
      <point x="142" y="732"/>
      <point x="35" y="564"/>
      <point x="35" y="358" type="curve" smooth="yes"/>
    </contour>
    <contour>
      <point x="589" y="264"/>
      <point x="565" y="183"/>
      <point x="522" y="126" type="curve"/>
      <point x="466" y="214"/>
      <point x="398" y="254"/>
      <point x="327" y="254" type="curve" smooth="yes"/>
      <point x="249" y="254"/>
      <point x="201" y="213"/>
      <point x="201" y="147" type="curve" smooth="yes"/>
      <point x="201" y="140"/>
      <point x="201" y="134"/>
      <point x="203" y="127" type="curve"/>
      <point x="163" y="182"/>
      <point x="143" y="261"/>
      <point x="143" y="350" type="curve" smooth="yes"/>
      <point x="143" y="527"/>
      <point x="225" y="675"/>
      <point x="371" y="675" type="curve" smooth="yes"/>
      <point x="541" y="675"/>
      <point x="589" y="480"/>
      <point x="589" y="355" type="curve" smooth="yes"/>
    </contour>
    <contour>
      <point x="244" y="172"/>
      <point x="272" y="196"/>
      <point x="310" y="196" type="curve" smooth="yes"/>
      <point x="354" y="196"/>
      <point x="412" y="163"/>
      <point x="458" y="70" type="curve"/>
      <point x="430" y="54"/>
      <point x="398" y="45"/>
      <point x="362" y="45" type="curve" smooth="yes"/>
      <point x="304" y="45"/>
      <point x="244" y="70"/>
      <point x="244" y="133" type="curve" smooth="yes"/>
    </contour>
  </outline>
</glyph>
<glyph name="R" format="1">
  <advance width="640"/>
  <unicode hex="0052"/>
  <outline>
    <contour>
      <point x="604" y="55" type="line"/>
      <point x="590" y="45"/>
      <point x="578" y="41"/>
      <point x="565" y="41" type="curve" smooth="yes"/>
      <point x="547" y="41"/>
      <point x="536" y="54"/>
      <point x="527" y="72" type="curve" smooth="yes"/>
      <point x="434" y="261" type="line" smooth="yes"/>
      <point x="423" y="282"/>
      <point x="412" y="298"/>
      <point x="394" y="310" type="curve"/>
      <point x="505" y="336"/>
      <point x="556" y="419"/>
      <point x="556" y="513" type="curve" smooth="yes"/>
      <point x="556" y="633"/>
      <point x="472" y="732"/>
      <point x="264" y="732" type="curve" smooth="yes"/>
      <point x="170" y="732"/>
      <point x="66" y="708"/>
      <point x="15" y="688" type="curve"/>
      <point x="27" y="651" type="line"/>
      <point x="85" y="651" type="line" smooth="yes"/>
      <point x="100" y="651"/>
      <point x="107" y="645"/>
      <point x="107" y="627" type="curve" smooth="yes"/>
      <point x="107" y="133" type="line" smooth="yes"/>
      <point x="107" y="72"/>
      <point x="93" y="53"/>
      <point x="43" y="40" type="curve" smooth="yes"/>
      <point x="20" y="34" type="line"/>
      <point x="32" y="0" type="line"/>
      <point x="251" y="0" type="line"/>
      <point x="264" y="16" type="line"/>
      <point x="251" y="34" type="line" smooth="yes"/>
      <point x="219" y="78"/>
      <point x="206" y="119"/>
      <point x="206" y="201" type="curve" smooth="yes"/>
      <point x="206" y="630" type="line" smooth="yes"/>
      <point x="206" y="648"/>
      <point x="214" y="676"/>
      <point x="282" y="676" type="curve" smooth="yes"/>
      <point x="394" y="676"/>
      <point x="452" y="603"/>
      <point x="452" y="510" type="curve" smooth="yes"/>
      <point x="452" y="417"/>
      <point x="395" y="354"/>
      <point x="293" y="354" type="curve" smooth="yes"/>
      <point x="263" y="354"/>
      <point x="252" y="361"/>
      <point x="244" y="361" type="curve" smooth="yes"/>
      <point x="233" y="361"/>
      <point x="228" y="349"/>
      <point x="228" y="337" type="curve" smooth="yes"/>
      <point x="228" y="327"/>
      <point x="234" y="319"/>
      <point x="247" y="314" type="curve" smooth="yes"/>
      <point x="286" y="300"/>
      <point x="302" y="293"/>
      <point x="315" y="264" type="curve" smooth="yes"/>
      <point x="391" y="103" type="line" smooth="yes"/>
      <point x="426" y="28"/>
      <point x="459" y="-14"/>
      <point x="529" y="-14" type="curve" smooth="yes"/>
      <point x="560" y="-14"/>
      <point x="592" y="-2"/>
      <point x="621" y="26" type="curve"/>
    </contour>
  </outline>
</glyph>
<glyph name="S" format="1">
  <advance width="572"/>
  <unicode hex="0053"/>
  <outline>
    <contour>
      <point x="206" y="42"/>
      <point x="148" y="91"/>
      <point x="148" y="161" type="curve" smooth="yes"/>
      <point x="148" y="217"/>
      <point x="180" y="243"/>
      <point x="180" y="252" type="curve" smooth="yes"/>
      <point x="180" y="258"/>
      <point x="174" y="264"/>
      <point x="159" y="264" type="curve" smooth="yes"/>
      <point x="94" y="264"/>
      <point x="45" y="216"/>
      <point x="45" y="147" type="curve" smooth="yes"/>
      <point x="45" y="52"/>
      <point x="147" y="-14"/>
      <point x="292" y="-14" type="curve" smooth="yes"/>
      <point x="443" y="-14"/>
      <point x="522" y="65"/>
      <point x="522" y="181" type="curve" smooth="yes"/>
      <point x="522" y="429"/>
      <point x="156" y="386"/>
      <point x="156" y="561" type="curve" smooth="yes"/>
      <point x="156" y="620"/>
      <point x="196" y="676"/>
      <point x="279" y="676" type="curve" smooth="yes"/>
      <point x="355" y="676"/>
      <point x="406" y="633"/>
      <point x="406" y="571" type="curve" smooth="yes"/>
      <point x="406" y="515"/>
      <point x="376" y="490"/>
      <point x="376" y="480" type="curve" smooth="yes"/>
      <point x="376" y="472"/>
      <point x="382" y="468"/>
      <point x="397" y="468" type="curve" smooth="yes"/>
      <point x="458" y="468"/>
      <point x="504" y="516"/>
      <point x="504" y="585" type="curve" smooth="yes"/>
      <point x="504" y="672"/>
      <point x="411" y="732"/>
      <point x="279" y="732" type="curve" smooth="yes"/>
      <point x="131" y="732"/>
      <point x="61" y="636"/>
      <point x="61" y="538" type="curve" smooth="yes"/>
      <point x="61" y="294"/>
      <point x="421" y="350"/>
      <point x="421" y="155" type="curve" smooth="yes"/>
      <point x="421" y="83"/>
      <point x="367" y="42"/>
      <point x="292" y="42" type="curve" smooth="yes"/>
    </contour>
  </outline>
</glyph>
<glyph name="U" format="1">
  <advance width="739"/>
  <unicode hex="0055"/>
  <outline>
    <contour>
      <point x="210" y="517" type="line" smooth="yes"/>
      <point x="210" y="598"/>
      <point x="222" y="640"/>
      <point x="255" y="684" type="curve" smooth="yes"/>
      <point x="268" y="702" type="line"/>
      <point x="255" y="718" type="line"/>
      <point x="36" y="718" type="line"/>
      <point x="24" y="684" type="line"/>
      <point x="47" y="678" type="line" smooth="yes"/>
      <point x="97" y="663"/>
      <point x="111" y="647"/>
      <point x="111" y="585" type="curve" smooth="yes"/>
      <point x="111" y="220" type="line" smooth="yes"/>
      <point x="111" y="55"/>
      <point x="227" y="-14"/>
      <point x="373" y="-14" type="curve" smooth="yes"/>
      <point x="517" y="-14"/>
      <point x="632" y="55"/>
      <point x="632" y="220" type="curve" smooth="yes"/>
      <point x="632" y="517" type="line" smooth="yes"/>
      <point x="632" y="598"/>
      <point x="644" y="640"/>
      <point x="677" y="684" type="curve" smooth="yes"/>
      <point x="690" y="702" type="line"/>
      <point x="677" y="718" type="line"/>
      <point x="487" y="718" type="line"/>
      <point x="475" y="684" type="line"/>
      <point x="498" y="678" type="line" smooth="yes"/>
      <point x="548" y="663"/>
      <point x="562" y="647"/>
      <point x="562" y="585" type="curve" smooth="yes"/>
      <point x="562" y="220" type="line" smooth="yes"/>
      <point x="562" y="111"/>
      <point x="484" y="49"/>
      <point x="386" y="49" type="curve" smooth="yes"/>
      <point x="288" y="49"/>
      <point x="210" y="111"/>
      <point x="210" y="220" type="curve" smooth="yes"/>
    </contour>
  </outline>
</glyph>
<glyph name="V" format="1">
  <advance width="682"/>
  <unicode hex="0056"/>
  <outline>
    <contour>
      <point x="597" y="584" type="line" smooth="yes"/>
      <point x="609" y="621"/>
      <point x="626" y="653"/>
      <point x="652" y="684" type="curve" smooth="yes"/>
      <point x="667" y="702" type="line"/>
      <point x="654" y="718" type="line"/>
      <point x="464" y="718" type="line"/>
      <point x="452" y="684" type="line"/>
      <point x="475" y="678" type="line" smooth="yes"/>
      <point x="505" y="670"/>
      <point x="519" y="647"/>
      <point x="520" y="611" type="curve" smooth="yes"/>
      <point x="520" y="587"/>
      <point x="513" y="556"/>
      <point x="501" y="518" type="curve" smooth="yes"/>
      <point x="361" y="83" type="line"/>
      <point x="198" y="585" type="line" smooth="yes"/>
      <point x="191" y="606"/>
      <point x="187" y="621"/>
      <point x="187" y="634" type="curve" smooth="yes"/>
      <point x="187" y="659"/>
      <point x="201" y="670"/>
      <point x="232" y="678" type="curve" smooth="yes"/>
      <point x="255" y="684" type="line"/>
      <point x="243" y="718" type="line"/>
      <point x="18" y="718" type="line"/>
      <point x="5" y="702" type="line"/>
      <point x="48" y="669"/>
      <point x="73" y="646"/>
      <point x="95" y="580" type="curve" smooth="yes"/>
      <point x="290" y="0" type="line"/>
      <point x="404" y="0" type="line"/>
    </contour>
  </outline>
</glyph>
<glyph name="Y" format="1">
  <advance width="626"/>
  <unicode hex="0059"/>
  <outline>
    <contour>
      <point x="218" y="571" type="line" smooth="yes"/>
      <point x="207" y="590"/>
      <point x="187" y="621"/>
      <point x="187" y="634" type="curve" smooth="yes"/>
      <point x="187" y="659"/>
      <point x="201" y="670"/>
      <point x="232" y="678" type="curve" smooth="yes"/>
      <point x="255" y="684" type="line"/>
      <point x="243" y="718" type="line"/>
      <point x="18" y="718" type="line"/>
      <point x="5" y="702" type="line"/>
      <point x="48" y="669"/>
      <point x="71" y="636"/>
      <point x="105" y="576" type="curve" smooth="yes"/>
      <point x="265" y="295" type="line"/>
      <point x="265" y="201" type="line" smooth="yes"/>
      <point x="265" y="119"/>
      <point x="250" y="78"/>
      <point x="218" y="34" type="curve" smooth="yes"/>
      <point x="205" y="16" type="line"/>
      <point x="218" y="0" type="line"/>
      <point x="437" y="0" type="line"/>
      <point x="449" y="34" type="line"/>
      <point x="426" y="40" type="line" smooth="yes"/>
      <point x="376" y="53"/>
      <point x="360" y="72"/>
      <point x="360" y="133" type="curve" smooth="yes"/>
      <point x="360" y="303" type="line"/>
      <point x="515" y="578" type="line" smooth="yes"/>
      <point x="534" y="612"/>
      <point x="560" y="653"/>
      <point x="586" y="684" type="curve" smooth="yes"/>
      <point x="601" y="702" type="line"/>
      <point x="588" y="718" type="line"/>
      <point x="398" y="718" type="line"/>
      <point x="386" y="684" type="line"/>
      <point x="409" y="678" type="line" smooth="yes"/>
      <point x="430" y="672"/>
      <point x="451" y="654"/>
      <point x="451" y="625" type="curve" smooth="yes"/>
      <point x="451" y="613"/>
      <point x="447" y="599"/>
      <point x="439" y="584" type="curve" smooth="yes"/>
      <point x="326" y="382" type="line"/>
    </contour>
  </outline>
</glyph>
<glyph name="underscore" format="1">
  <advance width="355"/>
  <unicode hex="005F"/>
  <outline>
    <contour>
      <point x="355" y="-84" type="line"/>
      <point x="375" y="-69"/>
      <point x="381" y="-38"/>
      <point x="381" y="-14" type="curve"/>
      <point x="0" y="-14" type="line"/>
      <point x="-19" y="-29"/>
      <point x="-26" y="-60"/>
      <point x="-26" y="-84" type="curve"/>
    </contour>
  </outline>
</glyph>
<glyph name="grave" format="1">
  <advance width="288"/>
  <unicode hex="0060"/>
  <outline>
    <contour>
      <point x="96" y="760" type="line"/>
      <point x="71" y="748"/>
      <point x="54" y="726"/>
      <point x="54" y="697" type="curve" smooth="yes"/>
      <point x="54" y="668"/>
      <point x="69" y="645"/>
      <point x="110" y="625" type="curve" smooth="yes"/>
      <point x="223" y="569" type="line"/>
      <point x="252" y="604" type="line"/>
    </contour>
  </outline>
</glyph>
<glyph name="g" format="1">
  <advance width="602"/>
  <unicode hex="0067"/>
  <outline>
    <contour>
      <point x="165" y="379"/>
      <point x="221" y="455"/>
      <point x="318" y="455" type="curve" smooth="yes"/>
      <point x="351" y="455"/>
      <point x="385" y="445"/>
      <point x="416" y="424" type="curve"/>
      <point x="416" y="183" type="line"/>
      <point x="379" y="120"/>
      <point x="330" y="92"/>
      <point x="279" y="92" type="curve" smooth="yes"/>
      <point x="220" y="92"/>
      <point x="165" y="133"/>
      <point x="165" y="248" type="curve" smooth="yes"/>
    </contour>
    <contour>
      <point x="241" y="-226"/>
      <point x="209" y="-184"/>
      <point x="209" y="-133" type="curve" smooth="yes"/>
      <point x="209" y="-60"/>
      <point x="258" y="-38"/>
      <point x="258" y="-25" type="curve" smooth="yes"/>
      <point x="258" y="-20"/>
      <point x="253" y="-14"/>
      <point x="239" y="-14" type="curve" smooth="yes"/>
      <point x="156" y="-14"/>
      <point x="112" y="-73"/>
      <point x="112" y="-135" type="curve" smooth="yes"/>
      <point x="112" y="-205"/>
      <point x="167" y="-278"/>
      <point x="283" y="-278" type="curve" smooth="yes"/>
      <point x="418" y="-278"/>
      <point x="505" y="-188"/>
      <point x="505" y="-22" type="curve" smooth="yes"/>
      <point x="505" y="415" type="line" smooth="yes"/>
      <point x="505" y="432"/>
      <point x="510" y="442"/>
      <point x="518" y="454" type="curve" smooth="yes"/>
      <point x="530" y="472" type="line"/>
      <point x="519" y="485" type="line"/>
      <point x="451" y="490"/>
      <point x="381" y="510"/>
      <point x="319" y="510" type="curve" smooth="yes"/>
      <point x="160" y="510"/>
      <point x="60" y="402"/>
      <point x="60" y="229" type="curve" smooth="yes"/>
      <point x="60" y="86"/>
      <point x="145" y="15"/>
      <point x="239" y="15" type="curve" smooth="yes"/>
      <point x="301" y="15"/>
      <point x="358" y="40"/>
      <point x="416" y="121" type="curve"/>
      <point x="416" y="-38" type="line" smooth="yes"/>
      <point x="416" y="-146"/>
      <point x="382" y="-226"/>
      <point x="296" y="-226" type="curve" smooth="yes"/>
    </contour>
  </outline>
</glyph>
<glyph name="i" format="1">
  <advance width="312"/>
  <unicode hex="0069"/>
  <outline>
    <contour>
      <point x="92" y="632"/>
      <point x="130" y="593"/>
      <point x="153" y="593" type="curve" smooth="yes"/>
      <point x="178" y="593"/>
      <point x="216" y="632"/>
      <point x="216" y="658" type="curve" smooth="yes"/>
      <point x="216" y="684"/>
      <point x="178" y="724"/>
      <point x="153" y="724" type="curve" smooth="yes"/>
      <point x="129" y="724"/>
      <point x="92" y="684"/>
      <point x="92" y="658" type="curve" smooth="yes"/>
    </contour>
    <contour>
      <point x="199" y="478" type="line" smooth="yes"/>
      <point x="199" y="497"/>
      <point x="186" y="510"/>
      <point x="167" y="510" type="curve" smooth="yes"/>
      <point x="129" y="510"/>
      <point x="74" y="485"/>
      <point x="35" y="450" type="curve"/>
      <point x="44" y="424" type="line"/>
      <point x="88" y="424" type="line" smooth="yes"/>
      <point x="102" y="424"/>
      <point x="108" y="418"/>
      <point x="108" y="402" type="curve" smooth="yes"/>
      <point x="108" y="92" type="line" smooth="yes"/>
      <point x="108" y="17"/>
      <point x="130" y="-14"/>
      <point x="185" y="-14" type="curve" smooth="yes"/>
      <point x="219" y="-14"/>
      <point x="262" y="10"/>
      <point x="297" y="49" type="curve"/>
      <point x="278" y="75" type="line"/>
      <point x="261" y="61"/>
      <point x="243" y="54"/>
      <point x="228" y="54" type="curve" smooth="yes"/>
      <point x="208" y="54"/>
      <point x="198" y="66"/>
      <point x="198" y="88" type="curve" smooth="yes"/>
    </contour>
  </outline>
</glyph>
<glyph name="o" format="1">
  <advance width="578"/>
  <unicode hex="006F"/>
  <outline>
    <contour>
      <point x="428" y="122"/>
      <point x="369" y="40"/>
      <point x="286" y="40" type="curve" smooth="yes"/>
      <point x="202" y="40"/>
      <point x="149" y="121"/>
      <point x="149" y="247" type="curve" smooth="yes"/>
      <point x="149" y="372"/>
      <point x="207" y="458"/>
      <point x="292" y="458" type="curve" smooth="yes"/>
      <point x="398" y="458"/>
      <point x="428" y="326"/>
      <point x="428" y="245" type="curve" smooth="yes"/>
    </contour>
    <contour>
      <point x="45" y="88"/>
      <point x="139" y="-14"/>
      <point x="289" y="-14" type="curve" smooth="yes"/>
      <point x="438" y="-14"/>
      <point x="533" y="88"/>
      <point x="533" y="248" type="curve" smooth="yes"/>
      <point x="533" y="409"/>
      <point x="438" y="510"/>
      <point x="289" y="510" type="curve" smooth="yes"/>
      <point x="139" y="510"/>
      <point x="45" y="409"/>
      <point x="45" y="248" type="curve" smooth="yes"/>
    </contour>
  </outline>
</glyph>
<glyph name="q" format="1">
  <advance width="589"/>
  <unicode hex="0071"/>
  <outline>
    <contour>
      <point x="492" y="415" type="line" smooth="yes"/>
      <point x="492" y="432"/>
      <point x="498" y="442"/>
      <point x="505" y="454" type="curve" smooth="yes"/>
      <point x="517" y="472" type="line"/>
      <point x="506" y="485" type="line"/>
      <point x="438" y="490"/>
      <point x="366" y="510"/>
      <point x="304" y="510" type="curve" smooth="yes"/>
      <point x="145" y="510"/>
      <point x="45" y="402"/>
      <point x="45" y="229" type="curve" smooth="yes"/>
      <point x="45" y="67"/>
      <point x="130" y="-14"/>
      <point x="224" y="-14" type="curve" smooth="yes"/>
      <point x="286" y="-14"/>
      <point x="343" y="11"/>
      <point x="401" y="92" type="curve"/>
      <point x="401" y="-146" type="line" smooth="yes"/>
      <point x="401" y="-190"/>
      <point x="390" y="-205"/>
      <point x="359" y="-219" type="curve" smooth="yes"/>
      <point x="328" y="-233" type="line"/>
      <point x="328" y="-266" type="line"/>
      <point x="514" y="-266" type="line"/>
      <point x="526" y="-251" type="line"/>
      <point x="516" y="-235" type="line" smooth="yes"/>
      <point x="497" y="-208"/>
      <point x="492" y="-181"/>
      <point x="492" y="-118" type="curve" smooth="yes"/>
    </contour>
    <contour>
      <point x="150" y="379"/>
      <point x="206" y="455"/>
      <point x="303" y="455" type="curve" smooth="yes"/>
      <point x="336" y="455"/>
      <point x="370" y="445"/>
      <point x="401" y="424" type="curve"/>
      <point x="401" y="154" type="line"/>
      <point x="364" y="91"/>
      <point x="315" y="63"/>
      <point x="264" y="63" type="curve" smooth="yes"/>
      <point x="205" y="63"/>
      <point x="150" y="112"/>
      <point x="150" y="248" type="curve" smooth="yes"/>
    </contour>
  </outline>
</glyph>
<glyph name="s" format="1">
  <advance width="481"/>
  <unicode hex="0073"/>
  <outline>
    <contour>
      <point x="199" y="35"/>
      <point x="146" y="60"/>
      <point x="146" y="121" type="curve" smooth="yes"/>
      <point x="146" y="154"/>
      <point x="158" y="169"/>
      <point x="158" y="177" type="curve" smooth="yes"/>
      <point x="158" y="186"/>
      <point x="147" y="189"/>
      <point x="137" y="189" type="curve" smooth="yes"/>
      <point x="88" y="189"/>
      <point x="54" y="156"/>
      <point x="54" y="111" type="curve" smooth="yes"/>
      <point x="54" y="34"/>
      <point x="129" y="-14"/>
      <point x="228" y="-14" type="curve" smooth="yes"/>
      <point x="348" y="-14"/>
      <point x="426" y="45"/>
      <point x="426" y="136" type="curve" smooth="yes"/>
      <point x="426" y="217"/>
      <point x="343" y="253"/>
      <point x="270" y="283" type="curve" smooth="yes"/>
      <point x="209" y="308"/>
      <point x="153" y="334"/>
      <point x="153" y="389" type="curve" smooth="yes"/>
      <point x="153" y="431"/>
      <point x="185" y="462"/>
      <point x="241" y="462" type="curve" smooth="yes"/>
      <point x="278" y="462"/>
      <point x="323" y="442"/>
      <point x="323" y="389" type="curve" smooth="yes"/>
      <point x="323" y="358"/>
      <point x="308" y="344"/>
      <point x="308" y="333" type="curve" smooth="yes"/>
      <point x="308" y="325"/>
      <point x="314" y="320"/>
      <point x="329" y="320" type="curve" smooth="yes"/>
      <point x="378" y="320"/>
      <point x="413" y="357"/>
      <point x="413" y="407" type="curve" smooth="yes"/>
      <point x="413" y="471"/>
      <point x="341" y="510"/>
      <point x="248" y="510" type="curve" smooth="yes"/>
      <point x="144" y="510"/>
      <point x="66" y="456"/>
      <point x="66" y="375" type="curve" smooth="yes"/>
      <point x="66" y="279"/>
      <point x="153" y="241"/>
      <point x="226" y="211" type="curve" smooth="yes"/>
      <point x="282" y="187"/>
      <point x="335" y="163"/>
      <point x="335" y="116" type="curve" smooth="yes"/>
      <point x="335" y="68"/>
      <point x="296" y="35"/>
      <point x="241" y="35" type="curve" smooth="yes"/>
    </contour>
  </outline>
</glyph>
<glyph name="t" format="1">
  <advance width="341"/>
  <unicode hex="0074"/>
  <outline>
    <contour>
      <point x="190" y="632" type="line"/>
      <point x="151" y="632"/>
      <point x="147" y="629"/>
      <point x="143" y="608" type="curve" smooth="yes"/>
      <point x="132" y="552"/>
      <point x="113" y="501"/>
      <point x="35" y="481" type="curve" smooth="yes"/>
      <point x="14" y="476"/>
      <point x="11" y="470"/>
      <point x="11" y="434" type="curve"/>
      <point x="99" y="434" type="line"/>
      <point x="99" y="82" type="line" smooth="yes"/>
      <point x="99" y="22"/>
      <point x="130" y="-14"/>
      <point x="185" y="-14" type="curve" smooth="yes"/>
      <point x="228" y="-14"/>
      <point x="280" y="16"/>
      <point x="315" y="61" type="curve"/>
      <point x="296" y="87" type="line"/>
      <point x="271" y="66"/>
      <point x="247" y="55"/>
      <point x="228" y="55" type="curve" smooth="yes"/>
      <point x="201" y="55"/>
      <point x="190" y="71"/>
      <point x="190" y="112" type="curve" smooth="yes"/>
      <point x="190" y="434" type="line"/>
      <point x="297" y="434" type="line"/>
      <point x="311" y="445"/>
      <point x="320" y="468"/>
      <point x="320" y="497" type="curve"/>
      <point x="190" y="497" type="line"/>
    </contour>
  </outline>
</glyph>
<glyph name="v" format="1">
  <advance width="553"/>
  <unicode hex="0076"/>
  <outline>
    <contour>
      <point x="235" y="51"/>
      <point x="215" y="84"/>
      <point x="203" y="166" type="curve" smooth="yes"/>
      <point x="158" y="478" type="line" smooth="yes"/>
      <point x="155" y="498"/>
      <point x="144" y="510"/>
      <point x="126" y="510" type="curve" smooth="yes"/>
      <point x="89" y="510"/>
      <point x="35" y="484"/>
      <point x="0" y="450" type="curve"/>
      <point x="9" y="424" type="line"/>
      <point x="53" y="424" type="line" smooth="yes"/>
      <point x="66" y="424"/>
      <point x="70" y="419"/>
      <point x="73" y="402" type="curve" smooth="yes"/>
      <point x="104" y="190" type="line" smooth="yes"/>
      <point x="126" y="38"/>
      <point x="166" y="-14"/>
      <point x="268" y="-14" type="curve" smooth="yes"/>
      <point x="383" y="-14"/>
      <point x="488" y="128"/>
      <point x="488" y="404" type="curve" smooth="yes"/>
      <point x="488" y="437"/>
      <point x="486" y="473"/>
      <point x="483" y="510" type="curve"/>
      <point x="364" y="496" type="line"/>
      <point x="352" y="483" type="line"/>
      <point x="362" y="467" type="line" smooth="yes"/>
      <point x="392" y="419"/>
      <point x="406" y="356"/>
      <point x="406" y="294" type="curve" smooth="yes"/>
      <point x="406" y="171"/>
      <point x="367" y="51"/>
      <point x="279" y="51" type="curve" smooth="yes"/>
    </contour>
  </outline>
</glyph>
<glyph name="bar" format="1">
  <advance width="351"/>
  <unicode hex="007C"/>
  <outline>
    <contour>
      <point x="225" y="-82" type="line"/>
      <point x="225" y="744" type="line"/>
      <point x="126" y="744" type="line"/>
      <point x="126" y="-82" type="line"/>
    </contour>
  </outline>
</glyph>
<glyph name="cent" format="1">
  <advance width="486"/>
  <unicode hex="00A2"/>
  <outline>
    <contour>
      <point x="203" y="165"/>
      <point x="147" y="242"/>
      <point x="147" y="360" type="curve" smooth="yes"/>
      <point x="147" y="485"/>
      <point x="198" y="570"/>
      <point x="274" y="570" type="curve" smooth="yes"/>
      <point x="331" y="570"/>
      <point x="368" y="536"/>
      <point x="368" y="483" type="curve" smooth="yes"/>
      <point x="368" y="427"/>
      <point x="344" y="410"/>
      <point x="344" y="401" type="curve" smooth="yes"/>
      <point x="344" y="393"/>
      <point x="350" y="390"/>
      <point x="363" y="390" type="curve" smooth="yes"/>
      <point x="420" y="390"/>
      <point x="461" y="430"/>
      <point x="461" y="488" type="curve" smooth="yes"/>
      <point x="461" y="563"/>
      <point x="395" y="616"/>
      <point x="301" y="621" type="curve"/>
      <point x="301" y="802" type="line"/>
      <point x="280" y="802"/>
      <point x="252" y="796"/>
      <point x="238" y="778" type="curve"/>
      <point x="238" y="618" type="line"/>
      <point x="119" y="597"/>
      <point x="43" y="498"/>
      <point x="43" y="358" type="curve" smooth="yes"/>
      <point x="43" y="218"/>
      <point x="122" y="117"/>
      <point x="238" y="100" type="curve"/>
      <point x="238" y="-83" type="line"/>
      <point x="260" y="-83"/>
      <point x="288" y="-77"/>
      <point x="301" y="-59" type="curve"/>
      <point x="301" y="100" type="line"/>
      <point x="358" y="107"/>
      <point x="411" y="134"/>
      <point x="452" y="181" type="curve" smooth="yes"/>
      <point x="454" y="183"/>
      <point x="455" y="186"/>
      <point x="455" y="190" type="curve" smooth="yes"/>
      <point x="455" y="203"/>
      <point x="441" y="218"/>
      <point x="430" y="218" type="curve" smooth="yes"/>
      <point x="425" y="218"/>
      <point x="422" y="216"/>
      <point x="421" y="215" type="curve" smooth="yes"/>
      <point x="380" y="181"/>
      <point x="338" y="165"/>
      <point x="290" y="165" type="curve" smooth="yes"/>
    </contour>
  </outline>
</glyph>
<glyph name="brokenbar" format="1">
  <advance width="351"/>
  <unicode hex="00A6"/>
  <outline>
    <contour>
      <point x="225" y="453" type="line"/>
      <point x="225" y="744" type="line"/>
      <point x="126" y="744" type="line"/>
      <point x="126" y="453" type="line"/>
    </contour>
    <contour>
      <point x="225" y="-82" type="line"/>
      <point x="225" y="210" type="line"/>
      <point x="126" y="210" type="line"/>
      <point x="126" y="-82" type="line"/>
    </contour>
  </outline>
</glyph>
<glyph name="dieresis" format="1">
  <advance width="421"/>
  <unicode hex="00A8"/>
  <outline>
    <contour>
      <point x="54" y="632"/>
      <point x="92" y="593"/>
      <point x="115" y="593" type="curve" smooth="yes"/>
      <point x="140" y="593"/>
      <point x="178" y="632"/>
      <point x="178" y="658" type="curve" smooth="yes"/>
      <point x="178" y="684"/>
      <point x="140" y="724"/>
      <point x="115" y="724" type="curve" smooth="yes"/>
      <point x="91" y="724"/>
      <point x="54" y="684"/>
      <point x="54" y="658" type="curve" smooth="yes"/>
    </contour>
    <contour>
      <point x="243" y="632"/>
      <point x="281" y="593"/>
      <point x="304" y="593" type="curve" smooth="yes"/>
      <point x="329" y="593"/>
      <point x="367" y="632"/>
      <point x="367" y="658" type="curve" smooth="yes"/>
      <point x="367" y="684"/>
      <point x="329" y="724"/>
      <point x="304" y="724" type="curve" smooth="yes"/>
      <point x="280" y="724"/>
      <point x="243" y="684"/>
      <point x="243" y="658" type="curve" smooth="yes"/>
    </contour>
  </outline>
</glyph>
<glyph name="micro" format="1">
  <advance width="614"/>
  <unicode hex="00B5"/>
  <outline>
    <contour>
      <point x="511" y="0" type="line"/>
      <point x="511" y="498" type="line"/>
      <point x="407" y="485" type="line"/>
      <point x="395" y="472" type="line"/>
      <point x="407" y="454" type="line" smooth="yes"/>
      <point x="419" y="435"/>
      <point x="420" y="421"/>
      <point x="421" y="409" type="curve"/>
      <point x="421" y="220" type="line" smooth="yes"/>
      <point x="421" y="122"/>
      <point x="365" y="53"/>
      <point x="286" y="53" type="curve" smooth="yes"/>
      <point x="220" y="53"/>
      <point x="185" y="95"/>
      <point x="185" y="175" type="curve" smooth="yes"/>
      <point x="185" y="452" type="line" smooth="yes"/>
      <point x="185" y="484"/>
      <point x="178" y="498"/>
      <point x="162" y="498" type="curve" smooth="yes"/>
      <point x="121" y="498"/>
      <point x="46" y="477"/>
      <point x="22" y="458" type="curve"/>
      <point x="22" y="425" type="line"/>
      <point x="74" y="414" type="line" smooth="yes"/>
      <point x="91" y="410"/>
      <point x="96" y="401"/>
      <point x="96" y="381" type="curve" smooth="yes"/>
      <point x="96" y="-114" type="line" smooth="yes"/>
      <point x="96" y="-137"/>
      <point x="93" y="-149"/>
      <point x="82" y="-165" type="curve" smooth="yes"/>
      <point x="70" y="-183" type="line"/>
      <point x="82" y="-196" type="line"/>
      <point x="185" y="-209" type="line"/>
      <point x="185" y="20" type="line"/>
      <point x="210" y="-4"/>
      <point x="241" y="-14"/>
      <point x="272" y="-14" type="curve" smooth="yes"/>
      <point x="332" y="-14"/>
      <point x="394" y="26"/>
      <point x="421" y="82" type="curve"/>
      <point x="421" y="16"/>
      <point x="446" y="-14"/>
      <point x="499" y="-14" type="curve"/>
    </contour>
  </outline>
</glyph>
<glyph name="cedilla" format="1">
  <advance width="350"/>
  <unicode hex="00B8"/>
  <outline>
    <contour>
      <point x="142" y="-253"/>
      <point x="122" y="-238"/>
      <point x="122" y="-214" type="curve" smooth="yes"/>
      <point x="122" y="-184"/>
      <point x="136" y="-179"/>
      <point x="136" y="-170" type="curve" smooth="yes"/>
      <point x="136" y="-164"/>
      <point x="129" y="-160"/>
      <point x="119" y="-160" type="curve" smooth="yes"/>
      <point x="84" y="-160"/>
      <point x="55" y="-182"/>
      <point x="55" y="-218" type="curve" smooth="yes"/>
      <point x="55" y="-269"/>
      <point x="109" y="-295"/>
      <point x="164" y="-295" type="curve" smooth="yes"/>
      <point x="242" y="-295"/>
      <point x="300" y="-242"/>
      <point x="300" y="-179" type="curve" smooth="yes"/>
      <point x="300" y="-102"/>
      <point x="246" y="-66"/>
      <point x="187" y="-66" type="curve" smooth="yes"/>
      <point x="174" y="-66"/>
      <point x="162" y="-67"/>
      <point x="149" y="-70" type="curve"/>
      <point x="226" y="29" type="line"/>
      <point x="202" y="51" type="line"/>
      <point x="84" y="-102" type="line"/>
      <point x="104" y="-120" type="line"/>
      <point x="124" y="-108"/>
      <point x="143" y="-103"/>
      <point x="159" y="-103" type="curve" smooth="yes"/>
      <point x="204" y="-103"/>
      <point x="226" y="-140"/>
      <point x="226" y="-177" type="curve" smooth="yes"/>
      <point x="226" y="-215"/>
      <point x="204" y="-253"/>
      <point x="163" y="-253" type="curve" smooth="yes"/>
    </contour>
  </outline>
</glyph>
<glyph name="ordmasculine" format="1">
  <advance width="435"/>
  <unicode hex="00BA"/>
  <outline>
    <contour>
      <point x="125" y="632"/>
      <point x="158" y="686"/>
      <point x="211" y="686" type="curve" smooth="yes"/>
      <point x="269" y="686"/>
      <point x="309" y="626"/>
      <point x="309" y="540" type="curve" smooth="yes"/>
      <point x="309" y="459"/>
      <point x="275" y="408"/>
      <point x="222" y="408" type="curve" smooth="yes"/>
      <point x="166" y="408"/>
      <point x="125" y="463"/>
      <point x="125" y="546" type="curve" smooth="yes"/>
    </contour>
    <contour>
      <point x="40" y="434"/>
      <point x="108" y="361"/>
      <point x="217" y="361" type="curve" smooth="yes"/>
      <point x="326" y="361"/>
      <point x="395" y="434"/>
      <point x="395" y="546" type="curve" smooth="yes"/>
      <point x="395" y="659"/>
      <point x="326" y="731"/>
      <point x="217" y="731" type="curve" smooth="yes"/>
      <point x="108" y="731"/>
      <point x="40" y="659"/>
      <point x="40" y="546" type="curve" smooth="yes"/>
    </contour>
  </outline>
</glyph>
<glyph name="guillemetright" format="1">
  <advance width="506"/>
  <unicode hex="00BB"/>
  <outline>
    <contour>
      <point x="289" y="79"/>
      <point x="319" y="74"/>
      <point x="345" y="72" type="curve"/>
      <point x="425" y="202"/>
      <point x="456" y="253"/>
      <point x="456" y="279" type="curve" smooth="yes"/>
      <point x="456" y="303"/>
      <point x="429" y="350"/>
      <point x="345" y="486" type="curve"/>
      <point x="319" y="484"/>
      <point x="289" y="478"/>
      <point x="259" y="440" type="curve"/>
      <point x="280" y="402"/>
      <point x="343" y="335"/>
      <point x="396" y="279" type="curve"/>
      <point x="343" y="223"/>
      <point x="280" y="155"/>
      <point x="259" y="118" type="curve"/>
    </contour>
    <contour>
      <point x="80" y="79"/>
      <point x="110" y="74"/>
      <point x="136" y="72" type="curve"/>
      <point x="216" y="202"/>
      <point x="247" y="253"/>
      <point x="247" y="279" type="curve" smooth="yes"/>
      <point x="247" y="303"/>
      <point x="220" y="350"/>
      <point x="136" y="486" type="curve"/>
      <point x="110" y="484"/>
      <point x="80" y="478"/>
      <point x="50" y="440" type="curve"/>
      <point x="71" y="402"/>
      <point x="134" y="335"/>
      <point x="187" y="279" type="curve"/>
      <point x="134" y="223"/>
      <point x="71" y="155"/>
      <point x="50" y="118" type="curve"/>
    </contour>
  </outline>
</glyph>
<glyph name="multiply" format="1">
  <advance width="621"/>
  <unicode hex="00D7"/>
  <outline>
    <contour>
      <point x="166" y="158" type="line"/>
      <point x="310" y="303" type="line"/>
      <point x="455" y="158" type="line"/>
      <point x="509" y="212" type="line"/>
      <point x="364" y="357" type="line"/>
      <point x="509" y="502" type="line"/>
      <point x="455" y="556" type="line"/>
      <point x="310" y="411" type="line"/>
      <point x="166" y="556" type="line"/>
      <point x="112" y="502" type="line"/>
      <point x="256" y="357" type="line"/>
      <point x="112" y="212" type="line"/>
    </contour>
  </outline>
</glyph>
<glyph name="Thorn" format="1">
  <advance width="596"/>
  <unicode hex="00DE"/>
  <outline>
    <contour>
      <point x="297" y="0" type="line"/>
      <point x="308" y="32" type="line"/>
      <point x="287" y="38" type="line" smooth="yes"/>
      <point x="239" y="52"/>
      <point x="226" y="67"/>
      <point x="226" y="126" type="curve" smooth="yes"/>
      <point x="226" y="498" type="line" smooth="yes"/>
      <point x="226" y="518"/>
      <point x="235" y="548"/>
      <point x="313" y="548" type="curve" smooth="yes"/>
      <point x="418" y="548"/>
      <point x="472" y="466"/>
      <point x="472" y="360" type="curve" smooth="yes"/>
      <point x="472" y="253"/>
      <point x="415" y="182"/>
      <point x="313" y="182" type="curve" smooth="yes"/>
      <point x="283" y="182"/>
      <point x="272" y="189"/>
      <point x="264" y="189" type="curve" smooth="yes"/>
      <point x="253" y="189"/>
      <point x="248" y="177"/>
      <point x="248" y="165" type="curve" smooth="yes"/>
      <point x="248" y="141"/>
      <point x="291" y="130"/>
      <point x="336" y="130" type="curve" smooth="yes"/>
      <point x="502" y="130"/>
      <point x="576" y="238"/>
      <point x="576" y="363" type="curve" smooth="yes"/>
      <point x="576" y="496"/>
      <point x="477" y="601"/>
      <point x="340" y="601" type="curve" smooth="yes"/>
      <point x="305" y="601"/>
      <point x="268" y="595"/>
      <point x="229" y="581" type="curve"/>
      <point x="235" y="623"/>
      <point x="248" y="653"/>
      <point x="271" y="684" type="curve" smooth="yes"/>
      <point x="284" y="702" type="line"/>
      <point x="271" y="718" type="line"/>
      <point x="52" y="718" type="line"/>
      <point x="40" y="684" type="line"/>
      <point x="63" y="678" type="line" smooth="yes"/>
      <point x="113" y="663"/>
      <point x="127" y="647"/>
      <point x="127" y="585" type="curve" smooth="yes"/>
      <point x="127" y="133" type="line" smooth="yes"/>
      <point x="127" y="71"/>
      <point x="113" y="55"/>
      <point x="63" y="40" type="curve" smooth="yes"/>
      <point x="40" y="34" type="line"/>
      <point x="52" y="0" type="line"/>
    </contour>
  </outline>
</glyph>
<glyph name="eth" format="1">
  <advance width="584"/>
  <unicode hex="00F0"/>
  <outline>
    <contour>
      <point x="126" y="790"/>
      <point x="74" y="727"/>
      <point x="74" y="665" type="curve" smooth="yes"/>
      <point x="74" y="611"/>
      <point x="113" y="559"/>
      <point x="186" y="559" type="curve" smooth="yes"/>
      <point x="198" y="559"/>
      <point x="202" y="564"/>
      <point x="202" y="569" type="curve" smooth="yes"/>
      <point x="202" y="580"/>
      <point x="159" y="599"/>
      <point x="159" y="664" type="curve" smooth="yes"/>
      <point x="159" y="708"/>
      <point x="187" y="745"/>
      <point x="236" y="745" type="curve" smooth="yes"/>
      <point x="327" y="745"/>
      <point x="399" y="607"/>
      <point x="431" y="430" type="curve"/>
      <point x="393" y="472"/>
      <point x="344" y="490"/>
      <point x="292" y="490" type="curve" smooth="yes"/>
      <point x="139" y="490"/>
      <point x="43" y="393"/>
      <point x="43" y="238" type="curve" smooth="yes"/>
      <point x="43" y="84"/>
      <point x="139" y="-14"/>
      <point x="292" y="-14" type="curve" smooth="yes"/>
      <point x="444" y="-14"/>
      <point x="541" y="84"/>
      <point x="541" y="238" type="curve" smooth="yes"/>
      <point x="541" y="411"/>
      <point x="473" y="790"/>
      <point x="237" y="790" type="curve" smooth="yes"/>
    </contour>
    <contour>
      <point x="147" y="361"/>
      <point x="202" y="438"/>
      <point x="289" y="438" type="curve" smooth="yes"/>
      <point x="383" y="438"/>
      <point x="448" y="352"/>
      <point x="448" y="229" type="curve" smooth="yes"/>
      <point x="448" y="113"/>
      <point x="392" y="40"/>
      <point x="304" y="40" type="curve" smooth="yes"/>
      <point x="213" y="40"/>
      <point x="147" y="119"/>
      <point x="147" y="238" type="curve" smooth="yes"/>
    </contour>
    <component base="eslash" xOffset="266" yOffset="324" xScale="0.9" yScale="0.9"/>
  </outline>
</glyph>
<glyph name="dotaccent" format="1">
  <advance width="324"/>
  <unicode hex="02D9"/>
  <outline>
    <contour>
      <point x="100" y="632"/>
      <point x="138" y="593"/>
      <point x="161" y="593" type="curve" smooth="yes"/>
      <point x="186" y="593"/>
      <point x="224" y="632"/>
      <point x="224" y="658" type="curve" smooth="yes"/>
      <point x="224" y="684"/>
      <point x="186" y="724"/>
      <point x="161" y="724" type="curve" smooth="yes"/>
      <point x="137" y="724"/>
      <point x="100" y="684"/>
      <point x="100" y="658" type="curve" smooth="yes"/>
    </contour>
  </outline>
</glyph>
<glyph name="ogonek" format="1">
  <advance width="388"/>
  <unicode hex="02DB"/>
  <outline>
    <contour>
      <point x="224" y="51" type="line"/>
      <point x="93" y="-36"/>
      <point x="24" y="-100"/>
      <point x="24" y="-181" type="curve" smooth="yes"/>
      <point x="24" y="-254"/>
      <point x="78" y="-295"/>
      <point x="144" y="-295" type="curve" smooth="yes"/>
      <point x="211" y="-295"/>
      <point x="283" y="-255"/>
      <point x="343" y="-169" type="curve"/>
      <point x="309" y="-138" type="line"/>
      <point x="265" y="-198"/>
      <point x="208" y="-229"/>
      <point x="165" y="-229" type="curve" smooth="yes"/>
      <point x="130" y="-229"/>
      <point x="104" y="-208"/>
      <point x="104" y="-164" type="curve" smooth="yes"/>
      <point x="104" y="-117"/>
      <point x="145" y="-57"/>
      <point x="250" y="12" type="curve"/>
    </contour>
  </outline>
</glyph>
<glyph name="hungarumlaut" format="1">
  <advance width="531"/>
  <unicode hex="02DD"/>
  <outline>
    <contour>
      <point x="63" y="604" type="line"/>
      <point x="92" y="569" type="line"/>
      <point x="205" y="625" type="line" smooth="yes"/>
      <point x="246" y="645"/>
      <point x="261" y="668"/>
      <point x="261" y="697" type="curve" smooth="yes"/>
      <point x="261" y="726"/>
      <point x="244" y="748"/>
      <point x="219" y="760" type="curve"/>
    </contour>
    <contour>
      <point x="270" y="604" type="line"/>
      <point x="299" y="569" type="line"/>
      <point x="412" y="625" type="line" smooth="yes"/>
      <point x="453" y="645"/>
      <point x="468" y="668"/>
      <point x="468" y="697" type="curve" smooth="yes"/>
      <point x="468" y="726"/>
      <point x="451" y="748"/>
      <point x="426" y="760" type="curve"/>
    </contour>
  </outline>
</glyph>
<glyph name="circumflexcomb" format="1">
  <advance width="374"/>
  <unicode hex="0302"/>
  <outline>
    <component base="circumflex"/>
    <contour>
      <point x="187" y="755" type="move" name="top"/>
    </contour>
    <contour>
      <point x="187" y="497" type="move" name="_top"/>
    </contour>
  </outline>
</glyph>
<glyph name="tildecomb" format="1">
  <advance width="408"/>
  <unicode hex="0303"/>
  <outline>
    <component base="tilde"/>
    <contour>
      <point x="204" y="723" type="move" name="top"/>
    </contour>
    <contour>
      <point x="204" y="497" type="move" name="_top"/>
    </contour>
  </outline>
</glyph>
<glyph name="cedillacomb" format="1">
  <advance width="350"/>
  <unicode hex="0327"/>
  <outline>
    <component base="cedilla"/>
    <contour>
      <point x="178" y="0" type="move" name="_bottom"/>
    </contour>
    <contour>
      <point x="178" y="-295" type="move" name="bottom"/>
    </contour>
  </outline>
</glyph>
<glyph name="strokeshortcomb" format="1">
  <advance width="442"/>
  <unicode hex="0335"/>
  <outline>
    <contour>
      <point x="353" y="316" type="line"/>
      <point x="369" y="329"/>
      <point x="373" y="353"/>
      <point x="373" y="372" type="curve"/>
      <point x="89" y="372" type="line"/>
      <point x="73" y="360"/>
      <point x="69" y="334"/>
      <point x="69" y="316" type="curve"/>
    </contour>
    <contour>
      <point x="221" y="344" type="move" name="_center"/>
    </contour>
  </outline>
</glyph>
<glyph name="Dje-cy" format="1">
  <advance width="760"/>
  <unicode hex="0402"/>
  <outline>
    <contour>
      <point x="740" y="380"/>
      <point x="651" y="458"/>
      <point x="522" y="458" type="curve" smooth="yes"/>
      <point x="469" y="458"/>
      <point x="410" y="445"/>
      <point x="347" y="419" type="curve"/>
      <point x="347" y="585" type="line" smooth="yes"/>
      <point x="347" y="647"/>
      <point x="354" y="662"/>
      <point x="382" y="662" type="curve" smooth="yes"/>
      <point x="428" y="662" type="line" smooth="yes"/>
      <point x="498" y="662"/>
      <point x="517" y="644"/>
      <point x="537" y="572" type="curve" smooth="yes"/>
      <point x="542" y="549" type="line"/>
      <point x="577" y="561" type="line"/>
      <point x="577" y="738" type="line"/>
      <point x="560" y="751" type="line"/>
      <point x="542" y="738" type="line" smooth="yes"/>
      <point x="523" y="723"/>
      <point x="486" y="718"/>
      <point x="429" y="718" type="curve" smooth="yes"/>
      <point x="168" y="718" type="line" smooth="yes"/>
      <point x="111" y="718"/>
      <point x="75" y="723"/>
      <point x="55" y="738" type="curve" smooth="yes"/>
      <point x="38" y="751" type="line"/>
      <point x="20" y="738" type="line"/>
      <point x="20" y="561" type="line"/>
      <point x="55" y="549" type="line"/>
      <point x="60" y="572" type="line" smooth="yes"/>
      <point x="80" y="644"/>
      <point x="98" y="662"/>
      <point x="169" y="662" type="curve" smooth="yes"/>
      <point x="215" y="662" type="line" smooth="yes"/>
      <point x="244" y="662"/>
      <point x="249" y="647"/>
      <point x="249" y="585" type="curve" smooth="yes"/>
      <point x="249" y="201" type="line" smooth="yes"/>
      <point x="249" y="119"/>
      <point x="237" y="78"/>
      <point x="204" y="34" type="curve"/>
      <point x="192" y="16" type="line"/>
      <point x="204" y="0" type="line"/>
      <point x="391" y="0" type="line"/>
      <point x="403" y="34" type="line"/>
      <point x="379" y="40" type="line"/>
      <point x="354" y="55"/>
      <point x="347" y="69"/>
      <point x="347" y="133" type="curve" smooth="yes"/>
      <point x="347" y="361" type="line"/>
      <point x="401" y="379"/>
      <point x="448" y="388"/>
      <point x="488" y="388" type="curve" smooth="yes"/>
      <point x="580" y="388"/>
      <point x="632" y="326"/>
      <point x="632" y="204" type="curve" smooth="yes"/>
      <point x="632" y="69"/>
      <point x="578" y="6"/>
      <point x="536" y="6" type="curve" smooth="yes"/>
      <point x="513" y="6"/>
      <point x="502" y="22"/>
      <point x="489" y="22" type="curve" smooth="yes"/>
      <point x="482" y="22"/>
      <point x="475" y="15"/>
      <point x="475" y="0" type="curve" smooth="yes"/>
      <point x="475" y="-29"/>
      <point x="500" y="-58"/>
      <point x="548" y="-58" type="curve" smooth="yes"/>
      <point x="652" y="-58"/>
      <point x="740" y="66"/>
      <point x="740" y="217" type="curve" smooth="yes"/>
    </contour>
  </outline>
</glyph>
<glyph name="Nje-cy" format="1">
  <advance width="1040"/>
  <unicode hex="040A"/>
  <outline>
    <contour>
      <point x="652" y="517" type="line" smooth="yes"/>
      <point x="652" y="597"/>
      <point x="666" y="639"/>
      <point x="697" y="684" type="curve"/>
      <point x="712" y="702" type="line"/>
      <point x="697" y="718" type="line"/>
      <point x="479" y="718" type="line"/>
      <point x="467" y="684" type="line"/>
      <point x="489" y="678" type="line" smooth="yes"/>
      <point x="540" y="665"/>
      <point x="554" y="645"/>
      <point x="554" y="585" type="curve" smooth="yes"/>
      <point x="554" y="395" type="line"/>
      <point x="227" y="395" type="line"/>
      <point x="227" y="517" type="line" smooth="yes"/>
      <point x="227" y="597"/>
      <point x="239" y="640"/>
      <point x="272" y="684" type="curve" smooth="yes"/>
      <point x="285" y="702" type="line"/>
      <point x="272" y="718" type="line"/>
      <point x="52" y="718" type="line"/>
      <point x="40" y="684" type="line"/>
      <point x="64" y="678" type="line"/>
      <point x="114" y="664"/>
      <point x="128" y="647"/>
      <point x="128" y="585" type="curve" smooth="yes"/>
      <point x="128" y="133" type="line" smooth="yes"/>
      <point x="128" y="69"/>
      <point x="114" y="55"/>
      <point x="64" y="40" type="curve"/>
      <point x="40" y="34" type="line"/>
      <point x="52" y="0" type="line"/>
      <point x="298" y="0" type="line"/>
      <point x="308" y="32" type="line"/>
      <point x="287" y="38" type="line" smooth="yes"/>
      <point x="240" y="52"/>
      <point x="227" y="67"/>
      <point x="227" y="126" type="curve" smooth="yes"/>
      <point x="227" y="334" type="line"/>
      <point x="554" y="334" type="line"/>
      <point x="554" y="133" type="line" smooth="yes"/>
      <point x="554" y="71"/>
      <point x="540" y="53"/>
      <point x="489" y="40" type="curve" smooth="yes"/>
      <point x="467" y="34" type="line"/>
      <point x="479" y="0" type="line"/>
      <point x="757" y="0" type="line" smooth="yes"/>
      <point x="947" y="0"/>
      <point x="1018" y="88"/>
      <point x="1018" y="210" type="curve" smooth="yes"/>
      <point x="1018" y="322"/>
      <point x="924" y="419"/>
      <point x="772" y="419" type="curve" smooth="yes"/>
      <point x="723" y="419"/>
      <point x="675" y="409"/>
      <point x="675" y="384" type="curve" smooth="yes"/>
      <point x="675" y="372"/>
      <point x="678" y="361"/>
      <point x="688" y="361" type="curve" smooth="yes"/>
      <point x="699" y="361"/>
      <point x="714" y="370"/>
      <point x="754" y="370" type="curve" smooth="yes"/>
      <point x="850" y="370"/>
      <point x="914" y="301"/>
      <point x="914" y="215" type="curve" smooth="yes"/>
      <point x="914" y="120"/>
      <point x="860" y="52"/>
      <point x="765" y="52" type="curve" smooth="yes"/>
      <point x="725" y="52"/>
      <point x="652" y="57"/>
      <point x="652" y="183" type="curve" smooth="yes"/>
    </contour>
  </outline>
</glyph>
<glyph name="Dzhe-cy" format="1">
  <advance width="748"/>
  <unicode hex="040F"/>
  <outline>
    <contour>
      <point x="183" y="0" type="line" smooth="yes"/>
      <point x="316" y="0"/>
      <point x="352" y="-15"/>
      <point x="388" y="-152" type="curve" smooth="yes"/>
      <point x="393" y="-177" type="line"/>
      <point x="428" y="-164" type="line"/>
      <point x="428" y="0" type="line"/>
      <point x="693" y="0" type="line"/>
      <point x="703" y="32" type="line"/>
      <point x="683" y="38" type="line" smooth="yes"/>
      <point x="635" y="52"/>
      <point x="623" y="67"/>
      <point x="623" y="126" type="curve" smooth="yes"/>
      <point x="623" y="517" type="line" smooth="yes"/>
      <point x="623" y="597"/>
      <point x="634" y="640"/>
      <point x="667" y="684" type="curve" smooth="yes"/>
      <point x="680" y="702" type="line"/>
      <point x="667" y="718" type="line"/>
      <point x="447" y="718" type="line"/>
      <point x="435" y="684" type="line"/>
      <point x="459" y="678" type="line"/>
      <point x="509" y="664"/>
      <point x="523" y="647"/>
      <point x="523" y="585" type="curve" smooth="yes"/>
      <point x="523" y="133" type="line" smooth="yes"/>
      <point x="523" y="69"/>
      <point x="511" y="57"/>
      <point x="459" y="57" type="curve" smooth="yes"/>
      <point x="290" y="57" type="line" smooth="yes"/>
      <point x="238" y="57"/>
      <point x="226" y="69"/>
      <point x="226" y="133" type="curve" smooth="yes"/>
      <point x="226" y="517" type="line" smooth="yes"/>
      <point x="226" y="597"/>
      <point x="238" y="640"/>
      <point x="272" y="684" type="curve" smooth="yes"/>
      <point x="285" y="702" type="line"/>
      <point x="272" y="718" type="line"/>
      <point x="52" y="718" type="line"/>
      <point x="40" y="684" type="line"/>
      <point x="64" y="678" type="line"/>
      <point x="113" y="664"/>
      <point x="127" y="647"/>
      <point x="127" y="585" type="curve" smooth="yes"/>
      <point x="127" y="133" type="line" smooth="yes"/>
      <point x="127" y="69"/>
      <point x="113" y="55"/>
      <point x="64" y="40" type="curve"/>
      <point x="40" y="34" type="line"/>
      <point x="52" y="0" type="line"/>
    </contour>
  </outline>
</glyph>
<glyph name="Ge-cy" format="1">
  <advance width="509"/>
  <unicode hex="0413"/>
  <outline>
    <contour>
      <point x="53" y="718" type="line"/>
      <point x="40" y="702" type="line"/>
      <point x="53" y="684" type="line" smooth="yes"/>
      <point x="86" y="640"/>
      <point x="99" y="597"/>
      <point x="99" y="517" type="curve" smooth="yes"/>
      <point x="99" y="201" type="line" smooth="yes"/>
      <point x="99" y="119"/>
      <point x="86" y="78"/>
      <point x="53" y="34" type="curve" smooth="yes"/>
      <point x="40" y="16" type="line"/>
      <point x="53" y="0" type="line"/>
      <point x="273" y="0" type="line"/>
      <point x="285" y="34" type="line"/>
      <point x="261" y="40" type="line"/>
      <point x="211" y="55"/>
      <point x="197" y="69"/>
      <point x="197" y="133" type="curve" smooth="yes"/>
      <point x="197" y="585" type="line" smooth="yes"/>
      <point x="197" y="647"/>
      <point x="209" y="662"/>
      <point x="261" y="662" type="curve" smooth="yes"/>
      <point x="347" y="662" type="line" smooth="yes"/>
      <point x="418" y="662"/>
      <point x="440" y="645"/>
      <point x="456" y="572" type="curve" smooth="yes"/>
      <point x="461" y="549" type="line"/>
      <point x="496" y="561" type="line"/>
      <point x="496" y="738" type="line"/>
      <point x="480" y="751" type="line"/>
      <point x="461" y="738" type="line" smooth="yes"/>
      <point x="441" y="724"/>
      <point x="406" y="718"/>
      <point x="348" y="718" type="curve" smooth="yes"/>
    </contour>
    <contour>
      <point x="169" y="359" type="move" name="center"/>
    </contour>
    <contour>
      <point x="99" y="0" type="move" name="bottomright"/>
    </contour>
    <contour>
      <point x="287" y="718" type="move" name="top"/>
    </contour>
  </outline>
</glyph>
<glyph name="Tse-cy" format="1">
  <advance width="714"/>
  <unicode hex="0426"/>
  <outline>
    <contour>
      <point x="13" y="34" type="line"/>
      <point x="25" y="0" type="line"/>
      <point x="515" y="0" type="line" smooth="yes"/>
      <point x="606" y="0"/>
      <point x="628" y="-55"/>
      <point x="663" y="-169" type="curve" smooth="yes"/>
      <point x="669" y="-193" type="line"/>
      <point x="704" y="-181" type="line"/>
      <point x="704" y="42" type="line"/>
      <point x="650" y="42"/>
      <point x="596" y="61"/>
      <point x="596" y="105" type="curve" smooth="yes"/>
      <point x="596" y="517" type="line" smooth="yes"/>
      <point x="596" y="597"/>
      <point x="607" y="640"/>
      <point x="640" y="684" type="curve" smooth="yes"/>
      <point x="653" y="702" type="line"/>
      <point x="640" y="718" type="line"/>
      <point x="420" y="718" type="line"/>
      <point x="408" y="684" type="line"/>
      <point x="432" y="678" type="line"/>
      <point x="482" y="664"/>
      <point x="496" y="647"/>
      <point x="496" y="585" type="curve" smooth="yes"/>
      <point x="496" y="133" type="line" smooth="yes"/>
      <point x="496" y="69"/>
      <point x="484" y="57"/>
      <point x="432" y="57" type="curve" smooth="yes"/>
      <point x="263" y="57" type="line" smooth="yes"/>
      <point x="211" y="57"/>
      <point x="199" y="69"/>
      <point x="199" y="133" type="curve" smooth="yes"/>
      <point x="199" y="517" type="line" smooth="yes"/>
      <point x="199" y="597"/>
      <point x="211" y="640"/>
      <point x="245" y="684" type="curve" smooth="yes"/>
      <point x="258" y="702" type="line"/>
      <point x="245" y="718" type="line"/>
      <point x="25" y="718" type="line"/>
      <point x="13" y="684" type="line"/>
      <point x="37" y="678" type="line"/>
      <point x="86" y="664"/>
      <point x="100" y="647"/>
      <point x="100" y="585" type="curve" smooth="yes"/>
      <point x="100" y="133" type="line" smooth="yes"/>
      <point x="100" y="69"/>
      <point x="86" y="55"/>
      <point x="37" y="40" type="curve"/>
    </contour>
  </outline>
</glyph>
<glyph name="Shcha-cy" format="1">
  <advance width="1094"/>
  <unicode hex="0429"/>
  <outline>
    <contour>
      <point x="40" y="34" type="line"/>
      <point x="52" y="0" type="line"/>
      <point x="894" y="0" type="line" smooth="yes"/>
      <point x="986" y="0"/>
      <point x="1015" y="-64"/>
      <point x="1044" y="-169" type="curve" smooth="yes"/>
      <point x="1050" y="-193" type="line"/>
      <point x="1084" y="-181" type="line"/>
      <point x="1084" y="42" type="line"/>
      <point x="1030" y="42"/>
      <point x="976" y="61"/>
      <point x="976" y="105" type="curve" smooth="yes"/>
      <point x="976" y="517" type="line" smooth="yes"/>
      <point x="976" y="597"/>
      <point x="989" y="639"/>
      <point x="1020" y="684" type="curve" smooth="yes"/>
      <point x="1033" y="702" type="line"/>
      <point x="1020" y="718" type="line"/>
      <point x="800" y="718" type="line"/>
      <point x="789" y="684" type="line"/>
      <point x="813" y="678" type="line"/>
      <point x="863" y="664"/>
      <point x="876" y="647"/>
      <point x="876" y="585" type="curve" smooth="yes"/>
      <point x="876" y="133" type="line" smooth="yes"/>
      <point x="876" y="69"/>
      <point x="865" y="57"/>
      <point x="813" y="57" type="curve" smooth="yes"/>
      <point x="649" y="57" type="line" smooth="yes"/>
      <point x="608" y="57"/>
      <point x="598" y="70"/>
      <point x="598" y="126" type="curve" smooth="yes"/>
      <point x="598" y="517" type="line" smooth="yes"/>
      <point x="598" y="597"/>
      <point x="611" y="640"/>
      <point x="645" y="684" type="curve"/>
      <point x="657" y="702" type="line"/>
      <point x="645" y="718" type="line"/>
      <point x="429" y="718" type="line"/>
      <point x="416" y="684" type="line"/>
      <point x="440" y="678" type="line" smooth="yes"/>
      <point x="491" y="664"/>
      <point x="504" y="647"/>
      <point x="504" y="585" type="curve" smooth="yes"/>
      <point x="504" y="133" type="line" smooth="yes"/>
      <point x="504" y="69"/>
      <point x="489" y="57"/>
      <point x="436" y="57" type="curve" smooth="yes"/>
      <point x="290" y="57" type="line" smooth="yes"/>
      <point x="238" y="57"/>
      <point x="227" y="69"/>
      <point x="227" y="133" type="curve" smooth="yes"/>
      <point x="227" y="517" type="line" smooth="yes"/>
      <point x="227" y="597"/>
      <point x="241" y="639"/>
      <point x="272" y="684" type="curve" smooth="yes"/>
      <point x="285" y="702" type="line"/>
      <point x="272" y="718" type="line"/>
      <point x="52" y="718" type="line"/>
      <point x="40" y="684" type="line"/>
      <point x="64" y="678" type="line"/>
      <point x="113" y="664"/>
      <point x="127" y="647"/>
      <point x="127" y="585" type="curve" smooth="yes"/>
      <point x="127" y="133" type="line" smooth="yes"/>
      <point x="127" y="69"/>
      <point x="113" y="55"/>
      <point x="64" y="40" type="curve"/>
    </contour>
  </outline>
</glyph>
<glyph name="Hardsign-cy" format="1">
  <advance width="735"/>
  <unicode hex="042A"/>
  <outline>
    <contour>
      <point x="452" y="0" type="line" smooth="yes"/>
      <point x="643" y="0"/>
      <point x="713" y="88"/>
      <point x="713" y="210" type="curve" smooth="yes"/>
      <point x="713" y="322"/>
      <point x="619" y="419"/>
      <point x="467" y="419" type="curve" smooth="yes"/>
      <point x="418" y="419"/>
      <point x="370" y="409"/>
      <point x="370" y="384" type="curve" smooth="yes"/>
      <point x="370" y="372"/>
      <point x="374" y="361"/>
      <point x="383" y="361" type="curve" smooth="yes"/>
      <point x="394" y="361"/>
      <point x="408" y="370"/>
      <point x="449" y="370" type="curve" smooth="yes"/>
      <point x="545" y="370"/>
      <point x="609" y="301"/>
      <point x="609" y="215" type="curve" smooth="yes"/>
      <point x="609" y="120"/>
      <point x="554" y="52"/>
      <point x="458" y="52" type="curve" smooth="yes"/>
      <point x="420" y="52"/>
      <point x="347" y="57"/>
      <point x="347" y="183" type="curve" smooth="yes"/>
      <point x="347" y="517" type="line" smooth="yes"/>
      <point x="347" y="597"/>
      <point x="360" y="639"/>
      <point x="393" y="684" type="curve" smooth="yes"/>
      <point x="406" y="702" type="line"/>
      <point x="393" y="718" type="line"/>
      <point x="168" y="718" type="line" smooth="yes"/>
      <point x="111" y="718"/>
      <point x="75" y="723"/>
      <point x="54" y="738" type="curve" smooth="yes"/>
      <point x="37" y="751" type="line"/>
      <point x="20" y="738" type="line"/>
      <point x="20" y="561" type="line"/>
      <point x="54" y="549" type="line"/>
      <point x="60" y="572" type="line" smooth="yes"/>
      <point x="79" y="644"/>
      <point x="98" y="662"/>
      <point x="169" y="662" type="curve" smooth="yes"/>
      <point x="195" y="662" type="line" smooth="yes"/>
      <point x="224" y="662"/>
      <point x="249" y="647"/>
      <point x="249" y="585" type="curve" smooth="yes"/>
      <point x="249" y="133" type="line" smooth="yes"/>
      <point x="249" y="71"/>
      <point x="235" y="53"/>
      <point x="185" y="40" type="curve" smooth="yes"/>
      <point x="161" y="34" type="line"/>
      <point x="174" y="0" type="line"/>
    </contour>
  </outline>
</glyph>
<glyph name="ge-cy" format="1">
  <advance width="462"/>
  <unicode hex="0433"/>
  <outline>
    <contour>
      <point x="56" y="492" type="line"/>
      <point x="45" y="478" type="line"/>
      <point x="56" y="460" type="line"/>
      <point x="86" y="422"/>
      <point x="98" y="381"/>
      <point x="98" y="306" type="curve" smooth="yes"/>
      <point x="98" y="176" type="line" smooth="yes"/>
      <point x="98" y="100"/>
      <point x="86" y="71"/>
      <point x="56" y="31" type="curve"/>
      <point x="45" y="15" type="line"/>
      <point x="56" y="0" type="line"/>
      <point x="256" y="0" type="line"/>
      <point x="267" y="31" type="line"/>
      <point x="246" y="38" type="line" smooth="yes"/>
      <point x="199" y="51"/>
      <point x="187" y="65"/>
      <point x="187" y="122" type="curve" smooth="yes"/>
      <point x="187" y="370" type="line" smooth="yes"/>
      <point x="187" y="427"/>
      <point x="198" y="439"/>
      <point x="246" y="439" type="curve" smooth="yes"/>
      <point x="300" y="439" type="line" smooth="yes"/>
      <point x="366" y="439"/>
      <point x="383" y="424"/>
      <point x="400" y="357" type="curve"/>
      <point x="407" y="336" type="line"/>
      <point x="437" y="346" type="line"/>
      <point x="437" y="510" type="line"/>
      <point x="422" y="523" type="line"/>
      <point x="407" y="510" type="line"/>
      <point x="388" y="496"/>
      <point x="354" y="492"/>
      <point x="301" y="492" type="curve" smooth="yes"/>
    </contour>
    <contour>
      <point x="171" y="249" type="move" name="center"/>
    </contour>
    <contour>
      <point x="98" y="0" type="move" name="bottomright"/>
    </contour>
    <contour>
      <point x="258" y="492" type="move" name="top"/>
    </contour>
  </outline>
</glyph>
<glyph name="ii-cy" format="1">
  <advance width="672"/>
  <unicode hex="0438"/>
  <outline>
    <contour>
      <point x="461" y="122" type="line" smooth="yes"/>
      <point x="461" y="65"/>
      <point x="449" y="51"/>
      <point x="402" y="38" type="curve" smooth="yes"/>
      <point x="382" y="31" type="line"/>
      <point x="392" y="0" type="line"/>
      <point x="617" y="0" type="line"/>
      <point x="627" y="30" type="line"/>
      <point x="607" y="36" type="line" smooth="yes"/>
      <point x="564" y="50"/>
      <point x="551" y="59"/>
      <point x="551" y="115" type="curve" smooth="yes"/>
      <point x="551" y="312" type="line" smooth="yes"/>
      <point x="551" y="388"/>
      <point x="563" y="425"/>
      <point x="593" y="467" type="curve" smooth="yes"/>
      <point x="604" y="483" type="line"/>
      <point x="593" y="497" type="line"/>
      <point x="392" y="497" type="line"/>
      <point x="382" y="467" type="line"/>
      <point x="402" y="460" type="line" smooth="yes"/>
      <point x="432" y="451"/>
      <point x="448" y="441"/>
      <point x="455" y="399" type="curve"/>
      <point x="214" y="171" type="line"/>
      <point x="214" y="312" type="line" smooth="yes"/>
      <point x="214" y="388"/>
      <point x="226" y="425"/>
      <point x="256" y="467" type="curve" smooth="yes"/>
      <point x="268" y="483" type="line"/>
      <point x="256" y="497" type="line"/>
      <point x="55" y="497" type="line"/>
      <point x="45" y="467" type="line"/>
      <point x="65" y="460" type="line" smooth="yes"/>
      <point x="111" y="447"/>
      <point x="123" y="432"/>
      <point x="123" y="375" type="curve" smooth="yes"/>
      <point x="123" y="122" type="line" smooth="yes"/>
      <point x="123" y="65"/>
      <point x="111" y="51"/>
      <point x="65" y="38" type="curve" smooth="yes"/>
      <point x="45" y="31" type="line"/>
      <point x="55" y="0" type="line"/>
      <point x="281" y="0" type="line"/>
      <point x="290" y="30" type="line"/>
      <point x="271" y="36" type="line" smooth="yes"/>
      <point x="242" y="43"/>
      <point x="226" y="52"/>
      <point x="219" y="96" type="curve"/>
      <point x="461" y="323" type="line"/>
    </contour>
    <contour>
      <point x="335" y="497" type="move" name="top"/>
    </contour>
    <contour>
      <point x="461" y="0" type="move" name="bottomright"/>
    </contour>
  </outline>
</glyph>
<glyph name="el-cy" format="1">
  <advance width="609"/>
  <unicode hex="043B"/>
  <outline>
    <contour>
      <point x="566" y="482" type="line"/>
      <point x="552" y="497" type="line"/>
      <point x="154" y="497" type="line"/>
      <point x="144" y="467" type="line"/>
      <point x="164" y="460" type="line"/>
      <point x="221" y="452"/>
      <point x="233" y="442"/>
      <point x="229" y="384" type="curve" smooth="yes"/>
      <point x="216" y="214"/>
      <point x="186" y="68"/>
      <point x="122" y="68" type="curve" smooth="yes"/>
      <point x="98" y="68"/>
      <point x="89" y="89"/>
      <point x="86" y="107" type="curve" smooth="yes"/>
      <point x="84" y="125"/>
      <point x="79" y="138"/>
      <point x="64" y="138" type="curve" smooth="yes"/>
      <point x="34" y="138"/>
      <point x="15" y="115"/>
      <point x="15" y="77" type="curve" smooth="yes"/>
      <point x="15" y="22"/>
      <point x="51" y="-14"/>
      <point x="104" y="-14" type="curve" smooth="yes"/>
      <point x="176" y="-14"/>
      <point x="257" y="41"/>
      <point x="287" y="408" type="curve" smooth="yes"/>
      <point x="290" y="440"/>
      <point x="311" y="444"/>
      <point x="344" y="444" type="curve" smooth="yes"/>
      <point x="361" y="444" type="line" smooth="yes"/>
      <point x="410" y="444"/>
      <point x="422" y="431"/>
      <point x="422" y="374" type="curve" smooth="yes"/>
      <point x="422" y="124" type="line" smooth="yes"/>
      <point x="422" y="65"/>
      <point x="408" y="51"/>
      <point x="361" y="38" type="curve" smooth="yes"/>
      <point x="341" y="31" type="line"/>
      <point x="352" y="0" type="line"/>
      <point x="577" y="0" type="line"/>
      <point x="587" y="31" type="line"/>
      <point x="568" y="36" type="line"/>
      <point x="525" y="49"/>
      <point x="511" y="61"/>
      <point x="511" y="115" type="curve" smooth="yes"/>
      <point x="511" y="312" type="line" smooth="yes"/>
      <point x="511" y="386"/>
      <point x="523" y="426"/>
      <point x="552" y="466" type="curve"/>
    </contour>
  </outline>
</glyph>
<glyph name="em-cy" format="1">
  <advance width="747"/>
  <unicode hex="043C"/>
  <outline>
    <contour>
      <point x="634" y="349" type="line" smooth="yes"/>
      <point x="624" y="396"/>
      <point x="642" y="433"/>
      <point x="666" y="467" type="curve"/>
      <point x="679" y="483" type="line"/>
      <point x="664" y="497" type="line"/>
      <point x="534" y="497" type="line"/>
      <point x="388" y="192" type="line"/>
      <point x="245" y="497" type="line"/>
      <point x="76" y="497" type="line"/>
      <point x="68" y="467" type="line"/>
      <point x="87" y="460" type="line"/>
      <point x="128" y="450"/>
      <point x="148" y="432"/>
      <point x="142" y="393" type="curve" smooth="yes"/>
      <point x="102" y="122" type="line" smooth="yes"/>
      <point x="95" y="73"/>
      <point x="85" y="51"/>
      <point x="38" y="38" type="curve" smooth="yes"/>
      <point x="15" y="31" type="line"/>
      <point x="27" y="0" type="line"/>
      <point x="199" y="0" type="line"/>
      <point x="212" y="14" type="line"/>
      <point x="200" y="31" type="line" smooth="yes"/>
      <point x="178" y="63"/>
      <point x="162" y="101"/>
      <point x="169" y="147" type="curve" smooth="yes"/>
      <point x="207" y="387" type="line"/>
      <point x="358" y="66" type="line"/>
      <point x="389" y="66" type="line"/>
      <point x="539" y="387" type="line"/>
      <point x="579" y="138" type="line" smooth="yes"/>
      <point x="590" y="82"/>
      <point x="576" y="51"/>
      <point x="527" y="38" type="curve"/>
      <point x="508" y="31" type="line"/>
      <point x="518" y="0" type="line"/>
      <point x="720" y="0" type="line"/>
      <point x="732" y="14" type="line"/>
      <point x="690" y="56"/>
      <point x="683" y="104"/>
      <point x="668" y="179" type="curve" smooth="yes"/>
    </contour>
  </outline>
</glyph>
<glyph name="u-cy" format="1">
  <advance width="610"/>
  <unicode hex="0443"/>
  <outline>
    <component base="y"/>
    <contour>
      <point x="279" y="497" type="move" name="top"/>
    </contour>
  </outline>
</glyph>
<glyph name="ef-cy" format="1">
  <advance width="777"/>
  <unicode hex="0444"/>
  <outline>
    <contour>
      <point x="344" y="-106" type="line" smooth="yes"/>
      <point x="344" y="-169"/>
      <point x="335" y="-201"/>
      <point x="311" y="-235" type="curve" smooth="yes"/>
      <point x="300" y="-251" type="line"/>
      <point x="311" y="-265" type="line"/>
      <point x="486" y="-265" type="line"/>
      <point x="497" y="-235" type="line"/>
      <point x="475" y="-231" type="line" smooth="yes"/>
      <point x="442" y="-223"/>
      <point x="433" y="-206"/>
      <point x="433" y="-155" type="curve" smooth="yes"/>
      <point x="433" y="409" type="line"/>
      <point x="465" y="433"/>
      <point x="494" y="444"/>
      <point x="529" y="444" type="curve" smooth="yes"/>
      <point x="606" y="444"/>
      <point x="666" y="369"/>
      <point x="666" y="226" type="curve" smooth="yes"/>
      <point x="666" y="107"/>
      <point x="608" y="40"/>
      <point x="549" y="40" type="curve" smooth="yes"/>
      <point x="498" y="40"/>
      <point x="485" y="56"/>
      <point x="474" y="56" type="curve" smooth="yes"/>
      <point x="463" y="56"/>
      <point x="461" y="44"/>
      <point x="461" y="31" type="curve" smooth="yes"/>
      <point x="461" y="24"/>
      <point x="465" y="16"/>
      <point x="471" y="13" type="curve"/>
      <point x="499" y="-4"/>
      <point x="537" y="-14"/>
      <point x="577" y="-14" type="curve" smooth="yes"/>
      <point x="696" y="-14"/>
      <point x="773" y="84"/>
      <point x="773" y="247" type="curve" smooth="yes"/>
      <point x="773" y="418"/>
      <point x="683" y="509"/>
      <point x="563" y="509" type="curve" smooth="yes"/>
      <point x="514" y="509"/>
      <point x="471" y="489"/>
      <point x="433" y="451" type="curve"/>
      <point x="433" y="736" type="line" smooth="yes"/>
      <point x="433" y="767"/>
      <point x="426" y="783"/>
      <point x="411" y="783" type="curve" smooth="yes"/>
      <point x="366" y="783"/>
      <point x="293" y="761"/>
      <point x="270" y="742" type="curve"/>
      <point x="270" y="708" type="line"/>
      <point x="323" y="698" type="line" smooth="yes"/>
      <point x="341" y="694"/>
      <point x="344" y="685"/>
      <point x="344" y="665" type="curve" smooth="yes"/>
      <point x="344" y="451" type="line"/>
      <point x="306" y="489"/>
      <point x="263" y="509"/>
      <point x="215" y="509" type="curve" smooth="yes"/>
      <point x="95" y="509"/>
      <point x="5" y="418"/>
      <point x="5" y="247" type="curve" smooth="yes"/>
      <point x="5" y="84"/>
      <point x="81" y="-14"/>
      <point x="201" y="-14" type="curve" smooth="yes"/>
      <point x="242" y="-14"/>
      <point x="278" y="-4"/>
      <point x="307" y="13" type="curve" smooth="yes"/>
      <point x="312" y="16"/>
      <point x="316" y="24"/>
      <point x="316" y="31" type="curve" smooth="yes"/>
      <point x="316" y="44"/>
      <point x="314" y="56"/>
      <point x="304" y="56" type="curve" smooth="yes"/>
      <point x="294" y="56"/>
      <point x="279" y="40"/>
      <point x="228" y="40" type="curve" smooth="yes"/>
      <point x="168" y="40"/>
      <point x="111" y="107"/>
      <point x="111" y="226" type="curve" smooth="yes"/>
      <point x="111" y="369"/>
      <point x="171" y="444"/>
      <point x="249" y="444" type="curve" smooth="yes"/>
      <point x="283" y="444"/>
      <point x="312" y="433"/>
      <point x="344" y="409" type="curve"/>
    </contour>
  </outline>
</glyph>
<glyph name="che-cy" format="1">
  <advance width="567"/>
  <unicode hex="0447"/>
  <outline>
    <contour>
      <point x="522" y="31" type="line"/>
      <point x="503" y="36" type="line"/>
      <point x="459" y="49"/>
      <point x="447" y="61"/>
      <point x="447" y="115" type="curve" smooth="yes"/>
      <point x="447" y="312" type="line" smooth="yes"/>
      <point x="447" y="386"/>
      <point x="457" y="426"/>
      <point x="488" y="467" type="curve" smooth="yes"/>
      <point x="500" y="482" type="line"/>
      <point x="488" y="497" type="line"/>
      <point x="287" y="497" type="line"/>
      <point x="277" y="467" type="line"/>
      <point x="297" y="460" type="line" smooth="yes"/>
      <point x="344" y="446"/>
      <point x="355" y="432"/>
      <point x="355" y="375" type="curve" smooth="yes"/>
      <point x="355" y="273" type="line"/>
      <point x="323" y="245"/>
      <point x="284" y="233"/>
      <point x="241" y="233" type="curve" smooth="yes"/>
      <point x="183" y="233"/>
      <point x="146" y="256"/>
      <point x="146" y="326" type="curve" smooth="yes"/>
      <point x="146" y="510" type="line"/>
      <point x="27" y="498" type="line"/>
      <point x="15" y="482" type="line"/>
      <point x="28" y="468" type="line"/>
      <point x="51" y="434"/>
      <point x="54" y="429"/>
      <point x="54" y="337" type="curve" smooth="yes"/>
      <point x="54" y="312" type="line" smooth="yes"/>
      <point x="54" y="211"/>
      <point x="106" y="164"/>
      <point x="208" y="164" type="curve" smooth="yes"/>
      <point x="276" y="164"/>
      <point x="320" y="185"/>
      <point x="355" y="213" type="curve"/>
      <point x="355" y="124" type="line" smooth="yes"/>
      <point x="355" y="66"/>
      <point x="345" y="49"/>
      <point x="297" y="38" type="curve" smooth="yes"/>
      <point x="277" y="32" type="line"/>
      <point x="287" y="0" type="line"/>
      <point x="513" y="0" type="line"/>
    </contour>
    <contour>
      <point x="248" y="199" type="move" name="center"/>
    </contour>
    <contour>
      <point x="354" y="0" type="move" name="bottomright"/>
    </contour>
    <contour>
      <point x="249" y="497" type="move" name="top"/>
    </contour>
  </outline>
</glyph>
<glyph name="softsign-cy" format="1">
  <advance width="564"/>
  <unicode hex="044C"/>
  <outline>
    <contour>
      <point x="214" y="312" type="line" smooth="yes"/>
      <point x="214" y="387"/>
      <point x="226" y="426"/>
      <point x="256" y="467" type="curve" smooth="yes"/>
      <point x="268" y="483" type="line"/>
      <point x="256" y="497" type="line"/>
      <point x="56" y="497" type="line"/>
      <point x="45" y="467" type="line"/>
      <point x="66" y="460" type="line" smooth="yes"/>
      <point x="110" y="447"/>
      <point x="124" y="430"/>
      <point x="124" y="375" type="curve" smooth="yes"/>
      <point x="124" y="122" type="line" smooth="yes"/>
      <point x="124" y="66"/>
      <point x="110" y="51"/>
      <point x="66" y="38" type="curve" smooth="yes"/>
      <point x="45" y="31" type="line"/>
      <point x="56" y="0" type="line"/>
      <point x="313" y="0" type="line" smooth="yes"/>
      <point x="482" y="0"/>
      <point x="544" y="61"/>
      <point x="544" y="148" type="curve" smooth="yes"/>
      <point x="544" y="226"/>
      <point x="475" y="294"/>
      <point x="334" y="294" type="curve" smooth="yes"/>
      <point x="290" y="294"/>
      <point x="238" y="285"/>
      <point x="238" y="259" type="curve" smooth="yes"/>
      <point x="238" y="249"/>
      <point x="242" y="239"/>
      <point x="250" y="239" type="curve" smooth="yes"/>
      <point x="262" y="239"/>
      <point x="273" y="249"/>
      <point x="317" y="249" type="curve" smooth="yes"/>
      <point x="391" y="249"/>
      <point x="440" y="205"/>
      <point x="440" y="151" type="curve" smooth="yes"/>
      <point x="440" y="91"/>
      <point x="397" y="49"/>
      <point x="329" y="49" type="curve" smooth="yes"/>
      <point x="280" y="49"/>
      <point x="214" y="53"/>
      <point x="214" y="185" type="curve" smooth="yes"/>
    </contour>
  </outline>
</glyph>
<glyph name="yusbig-cy" format="1">
  <advance width="807"/>
  <unicode hex="046B"/>
  <outline>
    <contour>
      <point x="226" y="265"/>
      <point x="199" y="248"/>
      <point x="168" y="191" type="curve" smooth="yes"/>
      <point x="101" y="65" type="line"/>
      <point x="91" y="49"/>
      <point x="82" y="38"/>
      <point x="66" y="38" type="curve" smooth="yes"/>
      <point x="54" y="38"/>
      <point x="43" y="41"/>
      <point x="30" y="51" type="curve"/>
      <point x="15" y="23" type="line"/>
      <point x="43" y="-3"/>
      <point x="69" y="-14"/>
      <point x="99" y="-14" type="curve" smooth="yes"/>
      <point x="156" y="-14"/>
      <point x="181" y="19"/>
      <point x="222" y="105" type="curve" smooth="yes"/>
      <point x="260" y="179" type="line" smooth="yes"/>
      <point x="283" y="229"/>
      <point x="319" y="223"/>
      <point x="319" y="249" type="curve" smooth="yes"/>
      <point x="319" y="261"/>
      <point x="313" y="265"/>
      <point x="301" y="265" type="curve" smooth="yes"/>
      <point x="296" y="265" type="line"/>
    </contour>
    <contour>
      <point x="638" y="191" type="line" smooth="yes"/>
      <point x="607" y="248"/>
      <point x="570" y="265"/>
      <point x="510" y="265" type="curve"/>
      <point x="504" y="265" type="line" smooth="yes"/>
      <point x="492" y="265"/>
      <point x="486" y="261"/>
      <point x="486" y="249" type="curve" smooth="yes"/>
      <point x="486" y="223"/>
      <point x="523" y="229"/>
      <point x="546" y="179" type="curve" smooth="yes"/>
      <point x="584" y="105" type="line" smooth="yes"/>
      <point x="626" y="19"/>
      <point x="649" y="-14"/>
      <point x="707" y="-14" type="curve" smooth="yes"/>
      <point x="736" y="-14"/>
      <point x="766" y="-3"/>
      <point x="792" y="23" type="curve"/>
      <point x="776" y="51" type="line"/>
      <point x="763" y="41"/>
      <point x="752" y="38"/>
      <point x="740" y="38" type="curve" smooth="yes"/>
      <point x="724" y="38"/>
      <point x="716" y="49"/>
      <point x="705" y="65" type="curve"/>
    </contour>
    <contour>
      <point x="146" y="497" type="line"/>
      <point x="137" y="487" type="line"/>
      <point x="175" y="467"/>
      <point x="184" y="453"/>
      <point x="209" y="421" type="curve" smooth="yes"/>
      <point x="358" y="234" type="line"/>
      <point x="358" y="122" type="line" smooth="yes"/>
      <point x="358" y="65"/>
      <point x="349" y="51"/>
      <point x="320" y="38" type="curve" smooth="yes"/>
      <point x="299" y="31" type="line"/>
      <point x="311" y="0" type="line"/>
      <point x="489" y="0" type="line"/>
      <point x="500" y="30" type="line"/>
      <point x="482" y="36" type="line" smooth="yes"/>
      <point x="453" y="45"/>
      <point x="448" y="59"/>
      <point x="448" y="115" type="curve" smooth="yes"/>
      <point x="448" y="239" type="line"/>
      <point x="578" y="400" type="line" smooth="yes"/>
      <point x="605" y="434"/>
      <point x="625" y="457"/>
      <point x="650" y="474" type="curve"/>
      <point x="660" y="487" type="line"/>
      <point x="652" y="497" type="line"/>
    </contour>
    <contour>
      <point x="280" y="430"/>
      <point x="290" y="441"/>
      <point x="304" y="441" type="curve" smooth="yes"/>
      <point x="523" y="441" type="line" smooth="yes"/>
      <point x="541" y="441"/>
      <point x="544" y="429"/>
      <point x="531" y="413" type="curve" smooth="yes"/>
      <point x="399" y="248" type="line"/>
      <point x="422" y="248" type="line"/>
      <point x="292" y="415" type="line" smooth="yes"/>
    </contour>
  </outline>
</glyph>
<glyph name="Izhitsa-cy" format="1">
  <advance width="752"/>
  <unicode hex="0474"/>
  <outline>
    <contour>
      <point x="576" y="722"/>
      <point x="518" y="683"/>
      <point x="480" y="542" type="curve" smooth="yes"/>
      <point x="343" y="37" type="line"/>
      <point x="375" y="38" type="line"/>
      <point x="199" y="585" type="line" smooth="yes"/>
      <point x="192" y="606"/>
      <point x="187" y="621"/>
      <point x="187" y="634" type="curve" smooth="yes"/>
      <point x="187" y="658"/>
      <point x="201" y="672"/>
      <point x="233" y="678" type="curve"/>
      <point x="255" y="684" type="line"/>
      <point x="244" y="718" type="line"/>
      <point x="18" y="718" type="line"/>
      <point x="5" y="702" type="line"/>
      <point x="48" y="669"/>
      <point x="73" y="646"/>
      <point x="95" y="580" type="curve" smooth="yes"/>
      <point x="290" y="0" type="line"/>
      <point x="404" y="0" type="line"/>
      <point x="546" y="519" type="line" smooth="yes"/>
      <point x="573" y="618"/>
      <point x="595" y="650"/>
      <point x="628" y="650" type="curve" smooth="yes"/>
      <point x="658" y="650"/>
      <point x="662" y="634"/>
      <point x="666" y="608" type="curve" smooth="yes"/>
      <point x="669" y="583"/>
      <point x="674" y="572"/>
      <point x="691" y="572" type="curve" smooth="yes"/>
      <point x="729" y="572"/>
      <point x="752" y="605"/>
      <point x="752" y="635" type="curve" smooth="yes"/>
      <point x="752" y="693"/>
      <point x="714" y="722"/>
      <point x="648" y="722" type="curve" smooth="yes"/>
    </contour>
  </outline>
</glyph>
<glyph name="izhitsa-cy" format="1">
  <advance width="551"/>
  <unicode hex="0475"/>
  <outline>
    <contour>
      <point x="410" y="508"/>
      <point x="364" y="457"/>
      <point x="343" y="359" type="curve" smooth="yes"/>
      <point x="274" y="42" type="line"/>
      <point x="294" y="59" type="line"/>
      <point x="261" y="209"/>
      <point x="213" y="349"/>
      <point x="158" y="479" type="curve" smooth="yes"/>
      <point x="150" y="497"/>
      <point x="144" y="509"/>
      <point x="126" y="509" type="curve" smooth="yes"/>
      <point x="89" y="509"/>
      <point x="35" y="484"/>
      <point x="0" y="450" type="curve"/>
      <point x="9" y="425" type="line"/>
      <point x="52" y="425" type="line" smooth="yes"/>
      <point x="63" y="425"/>
      <point x="66" y="419"/>
      <point x="74" y="401" type="curve" smooth="yes"/>
      <point x="113" y="308"/>
      <point x="174" y="181"/>
      <point x="219" y="0" type="curve"/>
      <point x="308" y="0" type="line"/>
      <point x="396" y="342" type="line" smooth="yes"/>
      <point x="412" y="408"/>
      <point x="433" y="438"/>
      <point x="466" y="438" type="curve" smooth="yes"/>
      <point x="486" y="438"/>
      <point x="498" y="425"/>
      <point x="500" y="399" type="curve" smooth="yes"/>
      <point x="502" y="382"/>
      <point x="507" y="373"/>
      <point x="525" y="373" type="curve" smooth="yes"/>
      <point x="551" y="373"/>
      <point x="571" y="395"/>
      <point x="571" y="426" type="curve" smooth="yes"/>
      <point x="571" y="475"/>
      <point x="535" y="508"/>
      <point x="481" y="508" type="curve" smooth="yes"/>
    </contour>
  </outline>
</glyph>
<glyph name="Gheupturn-cy" format="1">
  <advance width="523"/>
  <unicode hex="0490"/>
  <outline>
    <contour>
      <point x="53" y="718" type="line"/>
      <point x="40" y="702" type="line"/>
      <point x="53" y="684" type="line" smooth="yes"/>
      <point x="87" y="639"/>
      <point x="100" y="597"/>
      <point x="100" y="517" type="curve" smooth="yes"/>
      <point x="100" y="201" type="line" smooth="yes"/>
      <point x="100" y="118"/>
      <point x="87" y="78"/>
      <point x="53" y="34" type="curve" smooth="yes"/>
      <point x="40" y="16" type="line"/>
      <point x="53" y="0" type="line"/>
      <point x="273" y="0" type="line"/>
      <point x="285" y="34" type="line"/>
      <point x="261" y="40" type="line" smooth="yes"/>
      <point x="212" y="53"/>
      <point x="198" y="71"/>
      <point x="198" y="133" type="curve" smooth="yes"/>
      <point x="198" y="585" type="line" smooth="yes"/>
      <point x="198" y="647"/>
      <point x="210" y="662"/>
      <point x="261" y="662" type="curve" smooth="yes"/>
      <point x="363" y="662" type="line" smooth="yes"/>
      <point x="421" y="662"/>
      <point x="455" y="655"/>
      <point x="476" y="640" type="curve" smooth="yes"/>
      <point x="494" y="627" type="line"/>
      <point x="510" y="640" type="line"/>
      <point x="510" y="884" type="line"/>
      <point x="476" y="896" type="line"/>
      <point x="470" y="873" type="line" smooth="yes"/>
      <point x="443" y="768"/>
      <point x="413" y="718"/>
      <point x="322" y="718" type="curve" smooth="yes"/>
    </contour>
  </outline>
</glyph>
<glyph name="Zedescender-cy" format="1">
  <advance width="541"/>
  <unicode hex="0498"/>
  <outline>
    <contour>
      <point x="321" y="-164" type="line"/>
      <point x="321" y="0" type="line"/>
      <point x="186" y="-2" type="line"/>
      <point x="224" y="-13"/>
      <point x="252" y="-17"/>
      <point x="281" y="-152" type="curve" smooth="yes"/>
      <point x="287" y="-177" type="line"/>
    </contour>
    <component base="Ze-cy"/>
  </outline>
</glyph>
<glyph name="Kabashkir-cy" format="1">
  <advance width="782"/>
  <unicode hex="04A0"/>
  <outline>
    <contour>
      <point x="348" y="540" type="line" smooth="yes"/>
      <point x="350" y="606"/>
      <point x="363" y="645"/>
      <point x="393" y="684" type="curve"/>
      <point x="406" y="702" type="line"/>
      <point x="393" y="718" type="line"/>
      <point x="168" y="718" type="line" smooth="yes"/>
      <point x="111" y="718"/>
      <point x="75" y="723"/>
      <point x="55" y="738" type="curve" smooth="yes"/>
      <point x="38" y="751" type="line"/>
      <point x="20" y="738" type="line"/>
      <point x="20" y="561" type="line"/>
      <point x="55" y="549" type="line"/>
      <point x="60" y="572" type="line" smooth="yes"/>
      <point x="76" y="645"/>
      <point x="98" y="662"/>
      <point x="169" y="662" type="curve" smooth="yes"/>
      <point x="214" y="662" type="line" smooth="yes"/>
      <point x="243" y="662"/>
      <point x="249" y="647"/>
      <point x="249" y="585" type="curve" smooth="yes"/>
      <point x="249" y="133" type="line" smooth="yes"/>
      <point x="249" y="69"/>
      <point x="235" y="55"/>
      <point x="185" y="40" type="curve"/>
      <point x="162" y="34" type="line"/>
      <point x="173" y="0" type="line"/>
      <point x="419" y="0" type="line"/>
      <point x="429" y="32" type="line"/>
      <point x="408" y="38" type="line" smooth="yes"/>
      <point x="361" y="52"/>
      <point x="348" y="67"/>
      <point x="348" y="126" type="curve" smooth="yes"/>
    </contour>
    <contour>
      <point x="742" y="44"/>
      <point x="730" y="41"/>
      <point x="717" y="41" type="curve" smooth="yes"/>
      <point x="698" y="41"/>
      <point x="690" y="54"/>
      <point x="678" y="71" type="curve"/>
      <point x="551" y="300" type="line" smooth="yes"/>
      <point x="531" y="333"/>
      <point x="508" y="351"/>
      <point x="482" y="363" type="curve"/>
      <point x="662" y="624" type="line" smooth="yes"/>
      <point x="685" y="659"/>
      <point x="710" y="672"/>
      <point x="739" y="678" type="curve" smooth="yes"/>
      <point x="763" y="684" type="line"/>
      <point x="751" y="718" type="line"/>
      <point x="569" y="718" type="line"/>
      <point x="551" y="702" type="line"/>
      <point x="559" y="684" type="line"/>
      <point x="564" y="673"/>
      <point x="572" y="655"/>
      <point x="572" y="639" type="curve" smooth="yes"/>
      <point x="572" y="623"/>
      <point x="569" y="610"/>
      <point x="552" y="582" type="curve"/>
      <point x="415" y="381" type="line"/>
      <point x="392" y="381" type="line" smooth="yes"/>
      <point x="374" y="381"/>
      <point x="372" y="367"/>
      <point x="372" y="357" type="curve" smooth="yes"/>
      <point x="372" y="353"/>
      <point x="373" y="347"/>
      <point x="376" y="346" type="curve"/>
      <point x="401" y="334"/>
      <point x="413" y="327"/>
      <point x="428" y="301" type="curve" smooth="yes"/>
      <point x="547" y="84" type="line" smooth="yes"/>
      <point x="581" y="23"/>
      <point x="616" y="-14"/>
      <point x="680" y="-14" type="curve" smooth="yes"/>
      <point x="711" y="-14"/>
      <point x="744" y="-3"/>
      <point x="772" y="26" type="curve"/>
      <point x="756" y="55" type="line"/>
    </contour>
  </outline>
</glyph>
<glyph name="enghe-cy" format="1">
  <advance width="777"/>
  <unicode hex="04A5"/>
  <outline>
    <contour>
      <point x="722" y="515" type="line"/>
      <point x="703" y="501"/>
      <point x="669" y="497"/>
      <point x="616" y="497" type="curve" smooth="yes"/>
      <point x="414" y="497" type="line"/>
      <point x="403" y="483" type="line"/>
      <point x="414" y="466" type="line"/>
      <point x="444" y="427"/>
      <point x="455" y="386"/>
      <point x="455" y="312" type="curve" smooth="yes"/>
      <point x="455" y="279" type="line"/>
      <point x="214" y="279" type="line"/>
      <point x="214" y="312" type="line" smooth="yes"/>
      <point x="214" y="387"/>
      <point x="225" y="427"/>
      <point x="255" y="467" type="curve" smooth="yes"/>
      <point x="267" y="483" type="line"/>
      <point x="255" y="497" type="line"/>
      <point x="56" y="497" type="line"/>
      <point x="45" y="467" type="line"/>
      <point x="65" y="460" type="line" smooth="yes"/>
      <point x="112" y="447"/>
      <point x="124" y="432"/>
      <point x="124" y="375" type="curve" smooth="yes"/>
      <point x="124" y="122" type="line" smooth="yes"/>
      <point x="124" y="65"/>
      <point x="112" y="51"/>
      <point x="65" y="38" type="curve" smooth="yes"/>
      <point x="45" y="31" type="line"/>
      <point x="56" y="0" type="line"/>
      <point x="280" y="0" type="line"/>
      <point x="290" y="30" type="line"/>
      <point x="270" y="36" type="line" smooth="yes"/>
      <point x="227" y="49"/>
      <point x="214" y="60"/>
      <point x="214" y="115" type="curve" smooth="yes"/>
      <point x="214" y="221" type="line"/>
      <point x="455" y="221" type="line"/>
      <point x="455" y="122" type="line" smooth="yes"/>
      <point x="455" y="65"/>
      <point x="443" y="51"/>
      <point x="396" y="38" type="curve" smooth="yes"/>
      <point x="374" y="31" type="line"/>
      <point x="386" y="0" type="line"/>
      <point x="609" y="0" type="line"/>
      <point x="618" y="30" type="line"/>
      <point x="600" y="36" type="line" smooth="yes"/>
      <point x="557" y="49"/>
      <point x="545" y="60"/>
      <point x="545" y="115" type="curve" smooth="yes"/>
      <point x="545" y="375" type="line" smooth="yes"/>
      <point x="545" y="432"/>
      <point x="556" y="444"/>
      <point x="604" y="444" type="curve" smooth="yes"/>
      <point x="615" y="444" type="line" smooth="yes"/>
      <point x="681" y="444"/>
      <point x="698" y="429"/>
      <point x="714" y="362" type="curve"/>
      <point x="722" y="342" type="line"/>
      <point x="752" y="351" type="line"/>
      <point x="752" y="515" type="line"/>
      <point x="737" y="528" type="line"/>
    </contour>
    <contour>
      <point x="455" y="0" type="move" name="bottomright"/>
    </contour>
  </outline>
</glyph>
<glyph name="Esdescender-cy" format="1">
  <advance width="617"/>
  <unicode hex="04AA"/>
  <outline>
    <contour>
      <point x="394" y="-164" type="line"/>
      <point x="394" y="0" type="line"/>
      <point x="260" y="-2" type="line"/>
      <point x="297" y="-13"/>
      <point x="328" y="-15"/>
      <point x="355" y="-152" type="curve" smooth="yes"/>
      <point x="360" y="-177" type="line"/>
    </contour>
    <component base="Es-cy"/>
  </outline>
</glyph>
<glyph name="esdescender-cy" format="1">
  <advance width="509"/>
  <unicode hex="04AB"/>
  <outline>
    <contour>
      <point x="332" y="-151" type="line"/>
      <point x="332" y="0" type="line"/>
      <point x="191" y="5" type="line"/>
      <point x="237" y="-11"/>
      <point x="265" y="-18"/>
      <point x="294" y="-141" type="curve" smooth="yes"/>
      <point x="299" y="-162" type="line"/>
    </contour>
    <component base="c"/>
  </outline>
</glyph>
<glyph name="Ustrait-cy" format="1">
  <advance width="626"/>
  <unicode hex="04AE"/>
  <outline>
    <component base="Y"/>
    <contour>
      <point x="310" y="284" type="move" name="center"/>
    </contour>
  </outline>
</glyph>
<glyph name="Chekhakassian-cy" format="1">
  <advance width="613"/>
  <unicode hex="04CB"/>
  <outline>
    <contour>
      <point x="425" y="105" type="line"/>
      <point x="425" y="61"/>
      <point x="372" y="42"/>
      <point x="318" y="42" type="curve"/>
      <point x="318" y="-181" type="line"/>
      <point x="352" y="-193" type="line"/>
      <point x="359" y="-169" type="line" smooth="yes"/>
      <point x="392" y="-55"/>
      <point x="416" y="0"/>
      <point x="506" y="0" type="curve" smooth="yes"/>
      <point x="526" y="0" type="line"/>
      <point x="526" y="105" type="line"/>
    </contour>
    <component base="Che-cy"/>
  </outline>
</glyph>
<glyph name="Obarred-cy" format="1">
  <advance width="679"/>
  <unicode hex="04E8"/>
  <outline>
    <contour>
      <point x="596" y="331" type="line"/>
      <point x="612" y="344"/>
      <point x="616" y="368"/>
      <point x="616" y="387" type="curve"/>
      <point x="85" y="387" type="line"/>
      <point x="68" y="375"/>
      <point x="64" y="349"/>
      <point x="64" y="331" type="curve"/>
    </contour>
    <component base="O-cy"/>
  </outline>
</glyph>
<glyph name="obarred-cy" format="1">
  <advance width="623"/>
  <unicode hex="04E9"/>
  <outline>
    <contour>
      <point x="474" y="239" type="line"/>
      <point x="491" y="253"/>
      <point x="495" y="279"/>
      <point x="495" y="299" type="curve"/>
      <point x="139" y="299" type="line"/>
      <point x="122" y="286"/>
      <point x="117" y="258"/>
      <point x="117" y="239" type="curve"/>
    </contour>
    <component base="o-cy" xScale="1.078" yScale="1.078"/>
  </outline>
</glyph>
<glyph name="endash" format="1">
  <advance width="779"/>
  <unicode hex="2013"/>
  <outline>
    <contour>
      <point x="704" y="262" type="line"/>
      <point x="724" y="277"/>
      <point x="730" y="308"/>
      <point x="730" y="332" type="curve"/>
      <point x="76" y="322" type="line"/>
      <point x="57" y="307"/>
      <point x="50" y="276"/>
      <point x="50" y="252" type="curve"/>
    </contour>
  </outline>
</glyph>
<glyph name="emdash" format="1">
  <advance width="910"/>
  <unicode hex="2014"/>
  <outline>
    <contour>
      <point x="833" y="262" type="line"/>
      <point x="853" y="277"/>
      <point x="859" y="308"/>
      <point x="859" y="332" type="curve"/>
      <point x="76" y="322" type="line"/>
      <point x="57" y="307"/>
      <point x="50" y="276"/>
      <point x="50" y="252" type="curve"/>
    </contour>
  </outline>
</glyph>
<glyph name="dagger" format="1">
  <advance width="591"/>
  <unicode hex="2020"/>
  <outline>
    <contour>
      <point x="45" y="581"/>
      <point x="51" y="564"/>
      <point x="66" y="553" type="curve"/>
      <point x="148" y="565"/>
      <point x="218" y="574"/>
      <point x="257" y="583" type="curve"/>
      <point x="273" y="284"/>
      <point x="271" y="-119"/>
      <point x="295" y="-119" type="curve" smooth="yes"/>
      <point x="319" y="-119"/>
      <point x="318" y="284"/>
      <point x="333" y="583" type="curve"/>
      <point x="373" y="574"/>
      <point x="441" y="565"/>
      <point x="524" y="553" type="curve"/>
      <point x="539" y="564"/>
      <point x="545" y="581"/>
      <point x="545" y="603" type="curve" smooth="yes"/>
      <point x="545" y="624"/>
      <point x="539" y="642"/>
      <point x="524" y="653" type="curve"/>
      <point x="443" y="640"/>
      <point x="375" y="633"/>
      <point x="336" y="624" type="curve"/>
      <point x="340" y="689"/>
      <point x="344" y="748"/>
      <point x="351" y="795" type="curve"/>
      <point x="338" y="817"/>
      <point x="318" y="828"/>
      <point x="295" y="828" type="curve" smooth="yes"/>
      <point x="271" y="828"/>
      <point x="252" y="817"/>
      <point x="239" y="795" type="curve"/>
      <point x="245" y="748"/>
      <point x="250" y="689"/>
      <point x="254" y="624" type="curve"/>
      <point x="215" y="633"/>
      <point x="147" y="640"/>
      <point x="66" y="653" type="curve"/>
      <point x="51" y="642"/>
      <point x="45" y="624"/>
      <point x="45" y="603" type="curve" smooth="yes"/>
    </contour>
  </outline>
</glyph>
<glyph name="ellipsis" format="1">
  <advance width="573"/>
  <unicode hex="2026"/>
  <outline>
    <contour>
      <point x="33" y="25"/>
      <point x="71" y="-14"/>
      <point x="94" y="-14" type="curve" smooth="yes"/>
      <point x="119" y="-14"/>
      <point x="157" y="25"/>
      <point x="157" y="51" type="curve" smooth="yes"/>
      <point x="157" y="77"/>
      <point x="119" y="117"/>
      <point x="94" y="117" type="curve" smooth="yes"/>
      <point x="70" y="117"/>
      <point x="33" y="77"/>
      <point x="33" y="51" type="curve" smooth="yes"/>
    </contour>
    <contour>
      <point x="224" y="25"/>
      <point x="262" y="-14"/>
      <point x="285" y="-14" type="curve" smooth="yes"/>
      <point x="310" y="-14"/>
      <point x="348" y="25"/>
      <point x="348" y="51" type="curve" smooth="yes"/>
      <point x="348" y="77"/>
      <point x="310" y="117"/>
      <point x="285" y="117" type="curve" smooth="yes"/>
      <point x="261" y="117"/>
      <point x="224" y="77"/>
      <point x="224" y="51" type="curve" smooth="yes"/>
    </contour>
    <contour>
      <point x="415" y="25"/>
      <point x="453" y="-14"/>
      <point x="476" y="-14" type="curve" smooth="yes"/>
      <point x="501" y="-14"/>
      <point x="539" y="25"/>
      <point x="539" y="51" type="curve" smooth="yes"/>
      <point x="539" y="77"/>
      <point x="501" y="117"/>
      <point x="476" y="117" type="curve" smooth="yes"/>
      <point x="452" y="117"/>
      <point x="415" y="77"/>
      <point x="415" y="51" type="curve" smooth="yes"/>
    </contour>
  </outline>
</glyph>
<glyph name="guilsinglleft" format="1">
  <advance width="297"/>
  <unicode hex="2039"/>
  <outline>
    <contour>
      <point x="226" y="155"/>
      <point x="163" y="223"/>
      <point x="110" y="279" type="curve"/>
      <point x="163" y="335"/>
      <point x="226" y="402"/>
      <point x="247" y="440" type="curve"/>
      <point x="217" y="478"/>
      <point x="187" y="484"/>
      <point x="161" y="486" type="curve"/>
      <point x="77" y="350"/>
      <point x="50" y="303"/>
      <point x="50" y="279" type="curve" smooth="yes"/>
      <point x="50" y="253"/>
      <point x="81" y="202"/>
      <point x="161" y="72" type="curve"/>
      <point x="187" y="74"/>
      <point x="217" y="79"/>
      <point x="247" y="118" type="curve"/>
    </contour>
  </outline>
</glyph>
<glyph name="guilsinglright" format="1">
  <advance width="297"/>
  <unicode hex="203A"/>
  <outline>
    <contour>
      <point x="80" y="79"/>
      <point x="110" y="74"/>
      <point x="136" y="72" type="curve"/>
      <point x="216" y="202"/>
      <point x="247" y="253"/>
      <point x="247" y="279" type="curve" smooth="yes"/>
      <point x="247" y="303"/>
      <point x="220" y="350"/>
      <point x="136" y="486" type="curve"/>
      <point x="110" y="484"/>
      <point x="80" y="478"/>
      <point x="50" y="440" type="curve"/>
      <point x="71" y="402"/>
      <point x="134" y="335"/>
      <point x="187" y="279" type="curve"/>
      <point x="134" y="223"/>
      <point x="71" y="155"/>
      <point x="50" y="118" type="curve"/>
    </contour>
  </outline>
</glyph>
<glyph name="fraction" format="1">
  <advance width="371"/>
  <unicode hex="2044"/>
  <outline>
    <contour>
      <point x="71" y="0" type="line"/>
      <point x="371" y="718" type="line"/>
      <point x="299" y="718" type="line"/>
      <point x="0" y="0" type="line"/>
    </contour>
  </outline>
</glyph>
<glyph name="zeroinferior" format="1">
  <advance width="446"/>
  <unicode hex="2080"/>
  <outline>
    <contour>
      <point x="42" y="106"/>
      <point x="85" y="-14"/>
      <point x="213" y="-14" type="curve" smooth="yes"/>
      <point x="332" y="-14"/>
      <point x="401" y="95"/>
      <point x="401" y="225" type="curve" smooth="yes"/>
      <point x="401" y="344"/>
      <point x="342" y="438"/>
      <point x="228" y="438" type="curve" smooth="yes"/>
      <point x="112" y="438"/>
      <point x="42" y="337"/>
      <point x="42" y="213" type="curve" smooth="yes"/>
    </contour>
    <contour>
      <point x="126" y="310"/>
      <point x="156" y="391"/>
      <point x="221" y="391" type="curve" smooth="yes"/>
      <point x="285" y="391"/>
      <point x="316" y="310"/>
      <point x="316" y="212" type="curve" smooth="yes"/>
      <point x="316" y="113"/>
      <point x="285" y="33"/>
      <point x="221" y="33" type="curve" smooth="yes"/>
      <point x="156" y="33"/>
      <point x="126" y="113"/>
      <point x="126" y="212" type="curve" smooth="yes"/>
    </contour>
  </outline>
</glyph>
<glyph name="oneinferior" format="1">
  <advance width="319"/>
  <unicode hex="2081"/>
  <outline>
    <contour>
      <point x="208" y="398" type="line"/>
      <point x="226" y="409" type="line"/>
      <point x="219" y="421"/>
      <point x="207" y="436"/>
      <point x="189" y="440" type="curve"/>
      <point x="14" y="360" type="line"/>
      <point x="24" y="339"/>
      <point x="44" y="315"/>
      <point x="70" y="309" type="curve"/>
      <point x="129" y="347" type="line"/>
      <point x="129" y="85" type="line" smooth="yes"/>
      <point x="129" y="53"/>
      <point x="123" y="46"/>
      <point x="99" y="40" type="curve" smooth="yes"/>
      <point x="65" y="31" type="line"/>
      <point x="76" y="0" type="line"/>
      <point x="231" y="0" type="line"/>
      <point x="244" y="17" type="line"/>
      <point x="233" y="30" type="line" smooth="yes"/>
      <point x="213" y="54"/>
      <point x="208" y="79"/>
      <point x="208" y="126" type="curve" smooth="yes"/>
    </contour>
  </outline>
</glyph>
<glyph name="threeinferior" format="1">
  <advance width="388"/>
  <unicode hex="2083"/>
  <outline>
    <contour>
      <point x="284" y="-14"/>
      <point x="346" y="29"/>
      <point x="346" y="109" type="curve" smooth="yes"/>
      <point x="346" y="159"/>
      <point x="317" y="204"/>
      <point x="258" y="224" type="curve"/>
      <point x="304" y="246"/>
      <point x="334" y="280"/>
      <point x="334" y="328" type="curve" smooth="yes"/>
      <point x="334" y="402"/>
      <point x="258" y="437"/>
      <point x="185" y="437" type="curve" smooth="yes"/>
      <point x="116" y="437"/>
      <point x="51" y="406"/>
      <point x="51" y="341" type="curve" smooth="yes"/>
      <point x="51" y="301"/>
      <point x="82" y="273"/>
      <point x="125" y="273" type="curve" smooth="yes"/>
      <point x="139" y="273"/>
      <point x="147" y="276"/>
      <point x="147" y="286" type="curve" smooth="yes"/>
      <point x="147" y="287"/>
      <point x="143" y="294"/>
      <point x="141" y="297" type="curve" smooth="yes"/>
      <point x="137" y="304"/>
      <point x="130" y="318"/>
      <point x="130" y="337" type="curve" smooth="yes"/>
      <point x="130" y="373"/>
      <point x="157" y="391"/>
      <point x="184" y="391" type="curve" smooth="yes"/>
      <point x="216" y="391"/>
      <point x="248" y="369"/>
      <point x="248" y="326" type="curve" smooth="yes"/>
      <point x="248" y="295"/>
      <point x="237" y="250"/>
      <point x="145" y="232" type="curve" smooth="yes"/>
      <point x="105" y="225"/>
      <point x="104" y="220"/>
      <point x="104" y="206" type="curve" smooth="yes"/>
      <point x="104" y="196"/>
      <point x="109" y="189"/>
      <point x="123" y="189" type="curve" smooth="yes"/>
      <point x="125" y="189"/>
      <point x="130" y="189"/>
      <point x="132" y="190" type="curve" smooth="yes"/>
      <point x="140" y="192"/>
      <point x="155" y="195"/>
      <point x="171" y="195" type="curve" smooth="yes"/>
      <point x="248" y="195"/>
      <point x="260" y="142"/>
      <point x="260" y="113" type="curve" smooth="yes"/>
      <point x="260" y="61"/>
      <point x="223" y="36"/>
      <point x="185" y="36" type="curve" smooth="yes"/>
      <point x="151" y="36"/>
      <point x="119" y="57"/>
      <point x="119" y="93" type="curve" smooth="yes"/>
      <point x="119" y="113"/>
      <point x="127" y="125"/>
      <point x="130" y="132" type="curve" smooth="yes"/>
      <point x="131" y="135"/>
      <point x="135" y="143"/>
      <point x="136" y="143" type="curve"/>
      <point x="136" y="157"/>
      <point x="130" y="157"/>
      <point x="113" y="157" type="curve" smooth="yes"/>
      <point x="72" y="157"/>
      <point x="39" y="129"/>
      <point x="39" y="88" type="curve" smooth="yes"/>
      <point x="39" y="20"/>
      <point x="112" y="-14"/>
      <point x="186" y="-14" type="curve" smooth="yes"/>
    </contour>
  </outline>
</glyph>
<glyph name="seveninferior" format="1">
  <advance width="328"/>
  <unicode hex="2087"/>
  <outline>
    <contour>
      <point x="317" y="436" type="line"/>
      <point x="7" y="436" type="line"/>
      <point x="7" y="413"/>
      <point x="12" y="385"/>
      <point x="33" y="369" type="curve"/>
      <point x="227" y="369" type="line"/>
      <point x="119" y="91" type="line" smooth="yes"/>
      <point x="107" y="59"/>
      <point x="92" y="45"/>
      <point x="67" y="37" type="curve" smooth="yes"/>
      <point x="45" y="30" type="line"/>
      <point x="56" y="0" type="line"/>
      <point x="177" y="0" type="line"/>
      <point x="196" y="15" type="line"/>
      <point x="187" y="24"/>
      <point x="180" y="45"/>
      <point x="180" y="63" type="curve" smooth="yes"/>
      <point x="180" y="77"/>
      <point x="184" y="98"/>
      <point x="193" y="122" type="curve" smooth="yes"/>
    </contour>
  </outline>
</glyph>
<glyph name="eightinferior" format="1">
  <advance width="400"/>
  <unicode hex="2088"/>
  <outline>
    <contour>
      <point x="347" y="410"/>
      <point x="279" y="442"/>
      <point x="194" y="442" type="curve" smooth="yes"/>
      <point x="93" y="442"/>
      <point x="48" y="379"/>
      <point x="48" y="316" type="curve" smooth="yes"/>
      <point x="48" y="267"/>
      <point x="70" y="236"/>
      <point x="111" y="212" type="curve"/>
      <point x="74" y="187"/>
      <point x="37" y="151"/>
      <point x="37" y="101" type="curve" smooth="yes"/>
      <point x="37" y="18"/>
      <point x="108" y="-14"/>
      <point x="193" y="-14" type="curve" smooth="yes"/>
      <point x="296" y="-14"/>
      <point x="358" y="35"/>
      <point x="358" y="108" type="curve" smooth="yes"/>
      <point x="358" y="156"/>
      <point x="333" y="192"/>
      <point x="280" y="222" type="curve"/>
      <point x="315" y="246"/>
      <point x="347" y="281"/>
      <point x="347" y="328" type="curve" smooth="yes"/>
    </contour>
    <contour>
      <point x="214" y="164" type="line" smooth="yes"/>
      <point x="253" y="147"/>
      <point x="272" y="131"/>
      <point x="272" y="93" type="curve" smooth="yes"/>
      <point x="272" y="54"/>
      <point x="239" y="32"/>
      <point x="194" y="32" type="curve" smooth="yes"/>
      <point x="148" y="32"/>
      <point x="122" y="62"/>
      <point x="122" y="102" type="curve" smooth="yes"/>
      <point x="122" y="126"/>
      <point x="134" y="157"/>
      <point x="160" y="187" type="curve"/>
    </contour>
    <contour>
      <point x="237" y="395"/>
      <point x="263" y="367"/>
      <point x="263" y="328" type="curve" smooth="yes"/>
      <point x="263" y="303"/>
      <point x="251" y="275"/>
      <point x="229" y="246" type="curve"/>
      <point x="201" y="260" type="line" smooth="yes"/>
      <point x="149" y="286"/>
      <point x="131" y="304"/>
      <point x="131" y="333" type="curve" smooth="yes"/>
      <point x="131" y="365"/>
      <point x="156" y="395"/>
      <point x="194" y="395" type="curve" smooth="yes"/>
    </contour>
  </outline>
</glyph>
<glyph name="numero" format="1">
  <advance width="1090"/>
  <unicode hex="2116"/>
  <outline>
    <contour>
      <point x="1037" y="272" type="line"/>
      <point x="1055" y="286"/>
      <point x="1060" y="313"/>
      <point x="1060" y="335" type="curve"/>
      <point x="773" y="335" type="line"/>
      <point x="755" y="322"/>
      <point x="750" y="294"/>
      <point x="750" y="272" type="curve"/>
    </contour>
    <contour>
      <point x="825" y="638"/>
      <point x="854" y="687"/>
      <point x="899" y="687" type="curve" smooth="yes"/>
      <point x="949" y="687"/>
      <point x="984" y="632"/>
      <point x="984" y="554" type="curve" smooth="yes"/>
      <point x="984" y="480"/>
      <point x="955" y="434"/>
      <point x="909" y="434" type="curve" smooth="yes"/>
      <point x="860" y="434"/>
      <point x="825" y="484"/>
      <point x="825" y="560" type="curve" smooth="yes"/>
    </contour>
    <contour>
      <point x="740" y="455"/>
      <point x="803" y="387"/>
      <point x="905" y="387" type="curve" smooth="yes"/>
      <point x="1006" y="387"/>
      <point x="1070" y="455"/>
      <point x="1070" y="559" type="curve" smooth="yes"/>
      <point x="1070" y="665"/>
      <point x="1006" y="732"/>
      <point x="905" y="732" type="curve" smooth="yes"/>
      <point x="803" y="732"/>
      <point x="740" y="665"/>
      <point x="740" y="559" type="curve" smooth="yes"/>
    </contour>
    <component base="N"/>
  </outline>
</glyph>
<glyph name="trademark" format="1">
  <advance width="1082"/>
  <unicode hex="2122"/>
  <outline>
    <contour>
      <point x="417" y="604" type="line"/>
      <point x="431" y="604"/>
      <point x="448" y="608"/>
      <point x="455" y="620" type="curve"/>
      <point x="455" y="723" type="line"/>
      <point x="443" y="734" type="line"/>
      <point x="416" y="721"/>
      <point x="401" y="718"/>
      <point x="378" y="718" type="curve" smooth="yes"/>
      <point x="178" y="718" type="line" smooth="yes"/>
      <point x="153" y="718"/>
      <point x="142" y="720"/>
      <point x="113" y="734" type="curve"/>
      <point x="100" y="723" type="line"/>
      <point x="100" y="620" type="line"/>
      <point x="107" y="608"/>
      <point x="126" y="604"/>
      <point x="139" y="604" type="curve"/>
      <point x="154" y="677" type="line"/>
      <point x="243" y="677" type="line"/>
      <point x="243" y="342" type="line" smooth="yes"/>
      <point x="243" y="332"/>
      <point x="242" y="328"/>
      <point x="233" y="325" type="curve" smooth="yes"/>
      <point x="188" y="311" type="line"/>
      <point x="188" y="284" type="line"/>
      <point x="359" y="284" type="line"/>
      <point x="369" y="293"/>
      <point x="373" y="308"/>
      <point x="373" y="320" type="curve"/>
      <point x="314" y="333" type="line"/>
      <point x="314" y="677" type="line"/>
      <point x="402" y="677" type="line"/>
    </contour>
    <contour>
      <point x="966" y="284" type="line"/>
      <point x="977" y="292"/>
      <point x="982" y="307"/>
      <point x="982" y="320" type="curve"/>
      <point x="934" y="333" type="line"/>
      <point x="934" y="658" type="line" smooth="yes"/>
      <point x="934" y="667"/>
      <point x="938" y="674"/>
      <point x="944" y="676" type="curve" smooth="yes"/>
      <point x="982" y="690" type="line"/>
      <point x="982" y="718" type="line"/>
      <point x="864" y="718" type="line"/>
      <point x="819" y="621"/>
      <point x="776" y="522"/>
      <point x="731" y="425" type="curve"/>
      <point x="602" y="718" type="line"/>
      <point x="498" y="718" type="line"/>
      <point x="487" y="710"/>
      <point x="482" y="695"/>
      <point x="482" y="683" type="curve"/>
      <point x="530" y="669" type="line"/>
      <point x="530" y="342" type="line" smooth="yes"/>
      <point x="530" y="332"/>
      <point x="526" y="327"/>
      <point x="520" y="325" type="curve" smooth="yes"/>
      <point x="481" y="311" type="line"/>
      <point x="481" y="284" type="line"/>
      <point x="620" y="284" type="line"/>
      <point x="631" y="292"/>
      <point x="636" y="307"/>
      <point x="636" y="320" type="curve"/>
      <point x="583" y="333" type="line"/>
      <point x="583" y="591" type="line"/>
      <point x="703" y="327" type="line"/>
      <point x="742" y="327" type="line"/>
      <point x="863" y="594" type="line"/>
      <point x="863" y="342" type="line" smooth="yes"/>
      <point x="863" y="333"/>
      <point x="861" y="327"/>
      <point x="854" y="325" type="curve" smooth="yes"/>
      <point x="815" y="311" type="line"/>
      <point x="815" y="284" type="line"/>
    </contour>
  </outline>
</glyph>
<glyph name="partialdiff" format="1">
  <advance width="555"/>
  <unicode hex="2202"/>
  <outline>
    <contour>
      <point x="34" y="63"/>
      <point x="110" y="-14"/>
      <point x="239" y="-14" type="curve" smooth="yes"/>
      <point x="437" y="-14"/>
      <point x="517" y="159"/>
      <point x="517" y="322" type="curve" smooth="yes"/>
      <point x="517" y="484"/>
      <point x="455" y="703"/>
      <point x="195" y="786" type="curve"/>
      <point x="174" y="740" type="line"/>
      <point x="308" y="680"/>
      <point x="382" y="583"/>
      <point x="409" y="457" type="curve"/>
      <point x="381" y="480"/>
      <point x="346" y="490"/>
      <point x="309" y="490" type="curve" smooth="yes"/>
      <point x="136" y="490"/>
      <point x="34" y="339"/>
      <point x="34" y="188" type="curve" smooth="yes"/>
    </contour>
    <contour>
      <point x="367" y="438"/>
      <point x="413" y="373"/>
      <point x="413" y="276" type="curve" smooth="yes"/>
      <point x="413" y="133"/>
      <point x="339" y="40"/>
      <point x="252" y="40" type="curve" smooth="yes"/>
      <point x="180" y="40"/>
      <point x="134" y="99"/>
      <point x="134" y="193" type="curve" smooth="yes"/>
      <point x="134" y="291"/>
      <point x="180" y="438"/>
      <point x="294" y="438" type="curve" smooth="yes"/>
    </contour>
  </outline>
</glyph>
<glyph name="product" format="1">
  <advance width="680"/>
  <unicode hex="220F"/>
  <outline>
    <contour>
      <point x="578" y="-100" type="line"/>
      <point x="578" y="749" type="line"/>
      <point x="666" y="749" type="line"/>
      <point x="666" y="812" type="line"/>
      <point x="15" y="812" type="line"/>
      <point x="15" y="749" type="line"/>
      <point x="103" y="749" type="line"/>
      <point x="103" y="-100" type="line"/>
      <point x="192" y="-100" type="line"/>
      <point x="192" y="749" type="line"/>
      <point x="489" y="749" type="line"/>
      <point x="489" y="-100" type="line"/>
    </contour>
  </outline>
</glyph>
<glyph name="summation" format="1">
  <advance width="520"/>
  <unicode hex="2211"/>
  <outline>
    <contour>
      <point x="20" y="-39" type="line"/>
      <point x="83" y="-100" type="line"/>
      <point x="521" y="-100" type="line"/>
      <point x="521" y="-22" type="line"/>
      <point x="136" y="-22" type="line"/>
      <point x="398" y="356" type="line"/>
      <point x="150" y="749" type="line"/>
      <point x="520" y="749" type="line"/>
      <point x="520" y="812" type="line"/>
      <point x="39" y="812" type="line"/>
      <point x="39" y="773" type="line"/>
      <point x="299" y="362" type="line"/>
    </contour>
  </outline>
</glyph>
<glyph name="minus" format="1">
  <advance width="621"/>
  <unicode hex="2212"/>
  <outline>
    <contour>
      <point x="99" y="319" type="line"/>
      <point x="522" y="319" type="line"/>
      <point x="522" y="395" type="line"/>
      <point x="99" y="395" type="line"/>
    </contour>
  </outline>
</glyph>
<glyph name="radical" format="1">
  <advance width="586"/>
  <unicode hex="221A"/>
  <outline>
    <contour>
      <point x="456" y="811" type="line"/>
      <point x="260" y="-6" type="line"/>
      <point x="129" y="384" type="line"/>
      <point x="-39" y="317" type="line"/>
      <point x="-20" y="269" type="line"/>
      <point x="60" y="301" type="line"/>
      <point x="199" y="-100" type="line"/>
      <point x="306" y="-100" type="line"/>
      <point x="514" y="750" type="line"/>
      <point x="636" y="750" type="line"/>
      <point x="636" y="811" type="line"/>
    </contour>
  </outline>
</glyph>
<glyph name="lozenge" format="1">
  <advance width="598"/>
  <unicode hex="25CA"/>
  <outline>
    <contour>
      <point x="50" y="359" type="line"/>
      <point x="249" y="0" type="line"/>
      <point x="351" y="0" type="line"/>
      <point x="548" y="359" type="line"/>
      <point x="349" y="718" type="line"/>
      <point x="247" y="718" type="line"/>
    </contour>
    <contour>
      <point x="282" y="652" type="line"/>
      <point x="456" y="333" type="line"/>
      <point x="315" y="65" type="line"/>
      <point x="141" y="384" type="line"/>
    </contour>
  </outline>
</glyph>
<glyph name="De-cy.loclBGR" format="1">
  <advance width="677"/>
  <outline>
    <contour>
      <point x="685" y="42" type="line"/>
      <point x="632" y="50"/>
      <point x="606" y="90"/>
      <point x="593" y="137" type="curve"/>
      <point x="498" y="611" type="line" smooth="yes"/>
      <point x="486" y="671"/>
      <point x="462" y="717"/>
      <point x="409" y="717" type="curve" smooth="yes"/>
      <point x="370" y="717"/>
      <point x="323" y="717"/>
      <point x="269" y="678" type="curve"/>
      <point x="343" y="664"/>
      <point x="379" y="631"/>
      <point x="379" y="594" type="curve" smooth="yes"/>
      <point x="379" y="582"/>
      <point x="375" y="569"/>
      <point x="366" y="557" type="curve"/>
      <point x="273" y="402"/>
      <point x="100" y="296"/>
      <point x="100" y="134" type="curve" smooth="yes"/>
      <point x="100" y="68"/>
      <point x="64" y="51"/>
      <point x="1" y="43" type="curve"/>
      <point x="1" y="-181" type="line"/>
      <point x="35" y="-193" type="line"/>
      <point x="40" y="-169" type="line"/>
      <point x="73" y="-56"/>
      <point x="102" y="0"/>
      <point x="190" y="0" type="curve" smooth="yes"/>
      <point x="496" y="0" type="line" smooth="yes"/>
      <point x="587" y="-3"/>
      <point x="613" y="-53"/>
      <point x="645" y="-169" type="curve" smooth="yes"/>
      <point x="651" y="-193" type="line"/>
      <point x="685" y="-181" type="line"/>
    </contour>
    <contour>
      <point x="211" y="181" type="curve" smooth="yes"/>
      <point x="211" y="301"/>
      <point x="355" y="372"/>
      <point x="419" y="545" type="curve"/>
      <point x="484" y="104" type="line" smooth="yes"/>
      <point x="487" y="82"/>
      <point x="480" y="57"/>
      <point x="449" y="57" type="curve" smooth="yes"/>
      <point x="300" y="57" type="line" smooth="yes"/>
      <point x="216" y="57"/>
      <point x="211" y="124"/>
    </contour>
  </outline>
</glyph>
<glyph name="El-cy.loclBGR" format="1">
  <advance width="674"/>
  <outline>
    <contour>
      <point x="438" y="31" type="line" smooth="yes"/>
      <point x="442" y="3"/>
      <point x="457" y="-14"/>
      <point x="482" y="-14" type="curve" smooth="yes"/>
      <point x="534" y="-14"/>
      <point x="586" y="21"/>
      <point x="635" y="70" type="curve"/>
      <point x="622" y="106" type="line"/>
      <point x="561" y="106" type="line" smooth="yes"/>
      <point x="543" y="106"/>
      <point x="539" y="114"/>
      <point x="533" y="137" type="curve"/>
      <point x="438" y="611" type="line" smooth="yes"/>
      <point x="426" y="671"/>
      <point x="402" y="717"/>
      <point x="349" y="717" type="curve" smooth="yes"/>
      <point x="310" y="717"/>
      <point x="263" y="717"/>
      <point x="209" y="678" type="curve"/>
      <point x="283" y="664"/>
      <point x="319" y="631"/>
      <point x="319" y="594" type="curve" smooth="yes"/>
      <point x="319" y="582"/>
      <point x="315" y="569"/>
      <point x="306" y="557" type="curve"/>
      <point x="213" y="402"/>
      <point x="40" y="296"/>
      <point x="40" y="134" type="curve" smooth="yes"/>
      <point x="40" y="93"/>
      <point x="43" y="43"/>
      <point x="61" y="-14" type="curve"/>
      <point x="175" y="6" type="line"/>
      <point x="210" y="24" type="line"/>
      <point x="165" y="86"/>
      <point x="155" y="167"/>
      <point x="155" y="209" type="curve" smooth="yes"/>
      <point x="155" y="329"/>
      <point x="295" y="372"/>
      <point x="359" y="545" type="curve"/>
    </contour>
  </outline>
</glyph>
<glyph name="breve.case" format="1">
  <advance width="275"/>
  <outline>
    <contour>
      <point x="208" y="801"/>
      <point x="262" y="847"/>
      <point x="262" y="941" type="curve"/>
      <point x="207" y="941" type="line"/>
      <point x="207" y="901"/>
      <point x="176" y="877"/>
      <point x="138" y="877" type="curve" smooth="yes"/>
      <point x="99" y="877"/>
      <point x="68" y="901"/>
      <point x="68" y="941" type="curve"/>
      <point x="13" y="941" type="line"/>
      <point x="13" y="847"/>
      <point x="67" y="801"/>
      <point x="138" y="801" type="curve" smooth="yes"/>
    </contour>
  </outline>
</glyph>
<glyph name="caron.case" format="1">
  <advance width="275"/>
  <outline>
    <contour>
      <point x="152" y="799" type="line"/>
      <point x="174" y="812"/>
      <point x="231" y="879"/>
      <point x="275" y="957" type="curve"/>
      <point x="243" y="985" type="line"/>
      <point x="138" y="901" type="line"/>
      <point x="34" y="985" type="line"/>
      <point x="1" y="957" type="line"/>
      <point x="45" y="881"/>
      <point x="99" y="814"/>
      <point x="125" y="799" type="curve"/>
    </contour>
  </outline>
</glyph>
<glyph name="descender-cy" format="1">
  <advance width="217"/>
  <outline>
    <contour>
      <point x="-8" y="0" type="line"/>
      <point x="-4" y="0" type="line" smooth="yes"/>
      <point x="79" y="0"/>
      <point x="113" y="-50"/>
      <point x="135" y="-158" type="curve" smooth="yes"/>
      <point x="139" y="-180" type="line"/>
      <point x="172" y="-168" type="line"/>
      <point x="172" y="39" type="line"/>
      <point x="122" y="39"/>
      <point x="81" y="56"/>
      <point x="81" y="97" type="curve"/>
      <point x="-8" y="97" type="line"/>
    </contour>
    <contour>
      <point x="-8" y="0" type="move" name="_bottomright"/>
    </contour>
  </outline>
</glyph>
<glyph name="dotaccent.case" format="1">
  <advance width="275"/>
  <outline>
    <contour>
      <point x="76" y="853"/>
      <point x="114" y="814"/>
      <point x="137" y="814" type="curve" smooth="yes"/>
      <point x="162" y="814"/>
      <point x="200" y="853"/>
      <point x="200" y="879" type="curve" smooth="yes"/>
      <point x="200" y="905"/>
      <point x="162" y="945"/>
      <point x="137" y="945" type="curve" smooth="yes"/>
      <point x="113" y="945"/>
      <point x="76" y="905"/>
      <point x="76" y="879" type="curve" smooth="yes"/>
    </contour>
  </outline>
</glyph>
<glyph name="eslash" format="1">
  <advance width="348"/>
  <outline>
    <contour>
      <point x="302" y="384" type="line" smooth="yes"/>
      <point x="322" y="394"/>
      <point x="326" y="417"/>
      <point x="326" y="474" type="curve"/>
      <point x="46" y="334" type="line" smooth="yes"/>
      <point x="26" y="324"/>
      <point x="22" y="301"/>
      <point x="22" y="244" type="curve"/>
    </contour>
  </outline>
</glyph>
<glyph name="f_f_i" format="1">
  <advance width="880"/>
  <outline>
    <contour>
      <point x="483" y="497" type="line" smooth="yes"/>
      <point x="483" y="638"/>
      <point x="523" y="737"/>
      <point x="624" y="737" type="curve" smooth="yes"/>
      <point x="667" y="737"/>
      <point x="691" y="709"/>
      <point x="691" y="666" type="curve" smooth="yes"/>
      <point x="691" y="610"/>
      <point x="667" y="593"/>
      <point x="667" y="584" type="curve" smooth="yes"/>
      <point x="667" y="576"/>
      <point x="673" y="573"/>
      <point x="686" y="573" type="curve" smooth="yes"/>
      <point x="742" y="573"/>
      <point x="784" y="613"/>
      <point x="784" y="671" type="curve" smooth="yes"/>
      <point x="784" y="736"/>
      <point x="722" y="782"/>
      <point x="635" y="782" type="curve" smooth="yes"/>
      <point x="569" y="782"/>
      <point x="517" y="759"/>
      <point x="479" y="718" type="curve"/>
      <point x="449" y="757"/>
      <point x="404" y="782"/>
      <point x="351" y="782" type="curve" smooth="yes"/>
      <point x="205" y="782"/>
      <point x="127" y="668"/>
      <point x="112" y="497" type="curve"/>
      <point x="47" y="481" type="line" smooth="yes"/>
      <point x="26" y="476"/>
      <point x="23" y="470"/>
      <point x="23" y="434" type="curve"/>
      <point x="109" y="434" type="line"/>
      <point x="109" y="-90" type="line" smooth="yes"/>
      <point x="109" y="-163"/>
      <point x="76" y="-195"/>
      <point x="39" y="-195" type="curve" smooth="yes"/>
      <point x="8" y="-195"/>
      <point x="-16" y="-171"/>
      <point x="-16" y="-129" type="curve" smooth="yes"/>
      <point x="-16" y="-82"/>
      <point x="12" y="-66"/>
      <point x="12" y="-57" type="curve" smooth="yes"/>
      <point x="12" y="-49"/>
      <point x="6" y="-46"/>
      <point x="-7" y="-46" type="curve" smooth="yes"/>
      <point x="-64" y="-46"/>
      <point x="-105" y="-85"/>
      <point x="-105" y="-136" type="curve" smooth="yes"/>
      <point x="-105" y="-200"/>
      <point x="-51" y="-238"/>
      <point x="19" y="-238" type="curve" smooth="yes"/>
      <point x="97" y="-238"/>
      <point x="148" y="-201"/>
      <point x="175" y="-140" type="curve"/>
      <point x="202" y="-159"/>
      <point x="234" y="-169"/>
      <point x="270" y="-169" type="curve" smooth="yes"/>
      <point x="420" y="-169"/>
      <point x="483" y="-27"/>
      <point x="483" y="180" type="curve" smooth="yes"/>
      <point x="483" y="434" type="line"/>
      <point x="656" y="434" type="line" smooth="yes"/>
      <point x="670" y="434"/>
      <point x="676" y="428"/>
      <point x="676" y="412" type="curve" smooth="yes"/>
      <point x="676" y="92" type="line" smooth="yes"/>
      <point x="676" y="17"/>
      <point x="698" y="-14"/>
      <point x="753" y="-14" type="curve" smooth="yes"/>
      <point x="787" y="-14"/>
      <point x="830" y="10"/>
      <point x="865" y="49" type="curve"/>
      <point x="846" y="75" type="line"/>
      <point x="829" y="61"/>
      <point x="811" y="54"/>
      <point x="796" y="54" type="curve" smooth="yes"/>
      <point x="776" y="54"/>
      <point x="766" y="66"/>
      <point x="766" y="88" type="curve" smooth="yes"/>
      <point x="766" y="478" type="line" smooth="yes"/>
      <point x="766" y="497"/>
      <point x="754" y="510"/>
      <point x="735" y="510" type="curve"/>
      <point x="713" y="502"/>
      <point x="693" y="497"/>
      <point x="656" y="497" type="curve" smooth="yes"/>
    </contour>
    <contour>
      <point x="199" y="434" type="line"/>
      <point x="393" y="434" type="line"/>
      <point x="393" y="114" type="line" smooth="yes"/>
      <point x="393" y="-27"/>
      <point x="358" y="-124"/>
      <point x="267" y="-124" type="curve" smooth="yes"/>
      <point x="236" y="-124"/>
      <point x="211" y="-109"/>
      <point x="193" y="-82" type="curve"/>
      <point x="197" y="-61"/>
      <point x="199" y="-37"/>
      <point x="199" y="-13" type="curve"/>
    </contour>
    <contour>
      <point x="199" y="497" type="line"/>
      <point x="199" y="638"/>
      <point x="239" y="737"/>
      <point x="340" y="737" type="curve" smooth="yes"/>
      <point x="393" y="737"/>
      <point x="426" y="704"/>
      <point x="434" y="652" type="curve"/>
      <point x="413" y="609"/>
      <point x="401" y="556"/>
      <point x="396" y="497" type="curve"/>
    </contour>
  </outline>
</glyph>
<glyph name="ge-cy.loclBGR" format="1">
  <advance width="481"/>
  <outline>
    <contour>
      <point x="155" y="106" type="curve" smooth="yes"/>
      <point x="155" y="149"/>
      <point x="182" y="200"/>
      <point x="254" y="231" type="curve" smooth="yes"/>
      <point x="346" y="270"/>
      <point x="414" y="297"/>
      <point x="414" y="395" type="curve" smooth="yes"/>
      <point x="414" y="476"/>
      <point x="327" y="510"/>
      <point x="242" y="510" type="curve" smooth="yes"/>
      <point x="147" y="510"/>
      <point x="67" y="470"/>
      <point x="67" y="407" type="curve" smooth="yes"/>
      <point x="67" y="356"/>
      <point x="102" y="320"/>
      <point x="151" y="320" type="curve" smooth="yes"/>
      <point x="165" y="320"/>
      <point x="172" y="324"/>
      <point x="172" y="333" type="curve" smooth="yes"/>
      <point x="172" y="338"/>
      <point x="157" y="364"/>
      <point x="157" y="389" type="curve" smooth="yes"/>
      <point x="157" y="438"/>
      <point x="206" y="462"/>
      <point x="249" y="462" type="curve" smooth="yes"/>
      <point x="304" y="462"/>
      <point x="317" y="422"/>
      <point x="317" y="399" type="curve" smooth="yes"/>
      <point x="317" y="350"/>
      <point x="287" y="295"/>
      <point x="210" y="263" type="curve" smooth="yes"/>
      <point x="119" y="224"/>
      <point x="54" y="205"/>
      <point x="54" y="106" type="curve" smooth="yes"/>
      <point x="54" y="25"/>
      <point x="122" y="-14"/>
      <point x="242" y="-14" type="curve" smooth="yes"/>
      <point x="343" y="-14"/>
      <point x="426" y="35"/>
      <point x="426" y="111" type="curve" smooth="yes"/>
      <point x="426" y="156"/>
      <point x="392" y="189"/>
      <point x="343" y="189" type="curve" smooth="yes"/>
      <point x="329" y="189"/>
      <point x="322" y="185"/>
      <point x="322" y="177" type="curve" smooth="yes"/>
      <point x="322" y="173"/>
      <point x="334" y="150"/>
      <point x="334" y="121" type="curve" smooth="yes"/>
      <point x="334" y="65"/>
      <point x="287" y="35"/>
      <point x="239" y="35" type="curve" smooth="yes"/>
      <point x="174" y="35"/>
      <point x="155" y="78"/>
    </contour>
  </outline>
</glyph>
<glyph name="grave.case" format="1">
  <advance width="275"/>
  <outline>
    <contour>
      <point x="81" y="981" type="line"/>
      <point x="56" y="969"/>
      <point x="39" y="947"/>
      <point x="39" y="918" type="curve" smooth="yes"/>
      <point x="39" y="889"/>
      <point x="54" y="866"/>
      <point x="95" y="846" type="curve" smooth="yes"/>
      <point x="208" y="790" type="line"/>
      <point x="237" y="825" type="line"/>
    </contour>
  </outline>
</glyph>
<glyph name="hungarumlaut.case" format="1">
  <advance width="275"/>
  <outline>
    <contour>
      <point x="-65" y="825" type="line"/>
      <point x="-36" y="790" type="line"/>
      <point x="77" y="846" type="line" smooth="yes"/>
      <point x="118" y="866"/>
      <point x="133" y="889"/>
      <point x="133" y="918" type="curve" smooth="yes"/>
      <point x="133" y="947"/>
      <point x="116" y="969"/>
      <point x="91" y="981" type="curve"/>
    </contour>
    <contour>
      <point x="142" y="825" type="line"/>
      <point x="171" y="790" type="line"/>
      <point x="284" y="846" type="line" smooth="yes"/>
      <point x="325" y="866"/>
      <point x="340" y="889"/>
      <point x="340" y="918" type="curve" smooth="yes"/>
      <point x="340" y="947"/>
      <point x="323" y="969"/>
      <point x="298" y="981" type="curve"/>
    </contour>
  </outline>
</glyph>
<glyph name="iu-cy.loclBGR" format="1">
  <advance width="851"/>
  <outline>
    <contour>
      <point x="568" y="509" type="curve" smooth="yes"/>
      <point x="431" y="509"/>
      <point x="347" y="423"/>
      <point x="336" y="279" type="curve"/>
      <point x="214" y="279" type="line"/>
      <point x="214" y="600" type="line"/>
      <point x="214" y="750" type="line" smooth="yes"/>
      <point x="214" y="769"/>
      <point x="201" y="782"/>
      <point x="182" y="782" type="curve" smooth="yes"/>
      <point x="145" y="782"/>
      <point x="90" y="757"/>
      <point x="51" y="722" type="curve"/>
      <point x="60" y="696" type="line"/>
      <point x="104" y="696" type="line" smooth="yes"/>
      <point x="119" y="696"/>
      <point x="124" y="690"/>
      <point x="124" y="674" type="curve" smooth="yes"/>
      <point x="124" y="600" type="line"/>
      <point x="124" y="122" type="line" smooth="yes"/>
      <point x="124" y="66"/>
      <point x="113" y="51"/>
      <point x="66" y="38" type="curve"/>
      <point x="45" y="31" type="line"/>
      <point x="56" y="0" type="line"/>
      <point x="280" y="0" type="line"/>
      <point x="290" y="30" type="line"/>
      <point x="270" y="36" type="line" smooth="yes"/>
      <point x="225" y="50"/>
      <point x="214" y="59"/>
      <point x="214" y="115" type="curve" smooth="yes"/>
      <point x="214" y="221" type="line"/>
      <point x="336" y="221" type="line"/>
      <point x="344" y="76"/>
      <point x="429" y="-14"/>
      <point x="568" y="-14" type="curve" smooth="yes"/>
      <point x="711" y="-14"/>
      <point x="806" y="89"/>
      <point x="806" y="248" type="curve" smooth="yes"/>
      <point x="806" y="409"/>
      <point x="712" y="509"/>
    </contour>
    <contour>
      <point x="571" y="457" type="curve" smooth="yes"/>
      <point x="668" y="457"/>
      <point x="703" y="339"/>
      <point x="703" y="246" type="curve" smooth="yes"/>
      <point x="703" y="124"/>
      <point x="643" y="40"/>
      <point x="565" y="40" type="curve" smooth="yes"/>
      <point x="484" y="40"/>
      <point x="439" y="119"/>
      <point x="439" y="247" type="curve" smooth="yes"/>
      <point x="439" y="375"/>
      <point x="487" y="457"/>
    </contour>
  </outline>
</glyph>
<glyph name="macron.case" format="1">
  <advance width="275"/>
  <outline>
    <contour>
      <point x="259" y="838" type="line"/>
      <point x="279" y="855"/>
      <point x="285" y="891"/>
      <point x="285" y="918" type="curve"/>
      <point x="16" y="918" type="line"/>
      <point x="-3" y="901"/>
      <point x="-10" y="865"/>
      <point x="-10" y="838" type="curve"/>
    </contour>
  </outline>
</glyph>
<glyph name="ring.case" format="1">
  <advance width="275"/>
  <outline>
    <contour>
      <point x="94" y="911"/>
      <point x="109" y="937"/>
      <point x="136" y="937" type="curve" smooth="yes"/>
      <point x="165" y="937"/>
      <point x="180" y="911"/>
      <point x="180" y="879" type="curve" smooth="yes"/>
      <point x="180" y="847"/>
      <point x="165" y="821"/>
      <point x="136" y="821" type="curve" smooth="yes"/>
      <point x="109" y="821"/>
      <point x="94" y="847"/>
      <point x="94" y="879" type="curve" smooth="yes"/>
    </contour>
    <contour>
      <point x="24" y="819"/>
      <point x="62" y="773"/>
      <point x="136" y="773" type="curve" smooth="yes"/>
      <point x="213" y="773"/>
      <point x="251" y="819"/>
      <point x="251" y="879" type="curve" smooth="yes"/>
      <point x="251" y="939"/>
      <point x="213" y="986"/>
      <point x="136" y="986" type="curve" smooth="yes"/>
      <point x="62" y="986"/>
      <point x="24" y="939"/>
      <point x="24" y="879" type="curve" smooth="yes"/>
    </contour>
  </outline>
</glyph>
<glyph name="sha-cy.loclBGR" format="1">
  <advance width="949"/>
  <outline>
    <contour>
      <point x="848" y="266" type="line"/>
      <point x="854" y="394"/>
      <point x="854" y="452"/>
      <point x="848" y="510" type="curve"/>
      <point x="726" y="497" type="line"/>
      <point x="714" y="482" type="line"/>
      <point x="751" y="439"/>
      <point x="758" y="406"/>
      <point x="758" y="336" type="curve"/>
      <point x="757" y="174"/>
      <point x="697" y="64"/>
      <point x="612" y="64" type="curve" smooth="yes"/>
      <point x="563" y="64"/>
      <point x="538" y="98"/>
      <point x="538" y="166" type="curve" smooth="yes"/>
      <point x="538" y="336" type="line"/>
      <point x="538" y="497" type="line"/>
      <point x="416" y="497" type="line"/>
      <point x="404" y="482" type="line"/>
      <point x="422" y="461"/>
      <point x="434" y="439"/>
      <point x="440" y="419" type="curve"/>
      <point x="445" y="398"/>
      <point x="448" y="371"/>
      <point x="448" y="336" type="curve" smooth="yes"/>
      <point x="448" y="324" type="line"/>
      <point x="446" y="169"/>
      <point x="386" y="64"/>
      <point x="303" y="64" type="curve" smooth="yes"/>
      <point x="254" y="64"/>
      <point x="229" y="98"/>
      <point x="229" y="166" type="curve" smooth="yes"/>
      <point x="229" y="404" type="line" smooth="yes"/>
      <point x="229" y="479"/>
      <point x="207" y="510"/>
      <point x="152" y="510" type="curve" smooth="yes"/>
      <point x="117" y="510"/>
      <point x="75" y="486"/>
      <point x="40" y="447" type="curve"/>
      <point x="59" y="421" type="line"/>
      <point x="77" y="435"/>
      <point x="94" y="442"/>
      <point x="109" y="442" type="curve" smooth="yes"/>
      <point x="129" y="442"/>
      <point x="139" y="431"/>
      <point x="139" y="408" type="curve" smooth="yes"/>
      <point x="139" y="166" type="line" smooth="yes"/>
      <point x="139" y="41"/>
      <point x="178" y="-14"/>
      <point x="267" y="-14" type="curve" smooth="yes"/>
      <point x="304" y="-14"/>
      <point x="339" y="0"/>
      <point x="372" y="28" type="curve" smooth="yes"/>
      <point x="405" y="55"/>
      <point x="431" y="91"/>
      <point x="448" y="135" type="curve"/>
      <point x="455" y="32"/>
      <point x="495" y="-14"/>
      <point x="576" y="-14" type="curve" smooth="yes"/>
      <point x="613" y="-14"/>
      <point x="648" y="0"/>
      <point x="681" y="28" type="curve" smooth="yes"/>
      <point x="714" y="55"/>
      <point x="740" y="91"/>
      <point x="757" y="135" type="curve"/>
      <point x="757" y="28" type="line" smooth="yes"/>
      <point x="757" y="9"/>
      <point x="770" y="-4"/>
      <point x="789" y="-4" type="curve" smooth="yes"/>
      <point x="826" y="-4"/>
      <point x="882" y="21"/>
      <point x="921" y="56" type="curve"/>
      <point x="912" y="82" type="line"/>
      <point x="868" y="82" type="line" smooth="yes"/>
      <point x="853" y="82"/>
      <point x="848" y="88"/>
      <point x="848" y="104" type="curve" smooth="yes"/>
    </contour>
  </outline>
</glyph>
<glyph name="shcha-cy.loclBGR" format="1">
  <advance width="945"/>
  <outline>
    <contour>
      <point x="758" y="82" type="curve"/>
      <point x="758" y="15"/>
      <point x="782" y="-14"/>
      <point x="835" y="-14" type="curve"/>
      <point x="866" y="-37"/>
      <point x="885" y="-88"/>
      <point x="902" y="-158" type="curve"/>
      <point x="906" y="-180" type="line"/>
      <point x="938" y="-168" type="line"/>
      <point x="938" y="39" type="line"/>
      <point x="885" y="39"/>
      <point x="848" y="58"/>
      <point x="848" y="97" type="curve" smooth="yes"/>
      <point x="848" y="336" type="line"/>
      <point x="848" y="496" type="line"/>
      <point x="726" y="496" type="line"/>
      <point x="714" y="481" type="line"/>
      <point x="732" y="460"/>
      <point x="744" y="439"/>
      <point x="750" y="419" type="curve"/>
      <point x="755" y="398"/>
      <point x="758" y="371"/>
      <point x="758" y="336" type="curve"/>
      <point x="757" y="174"/>
      <point x="697" y="64"/>
      <point x="612" y="64" type="curve" smooth="yes"/>
      <point x="563" y="64"/>
      <point x="538" y="98"/>
      <point x="538" y="166" type="curve" smooth="yes"/>
      <point x="538" y="336" type="line"/>
      <point x="538" y="496" type="line"/>
      <point x="416" y="496" type="line"/>
      <point x="404" y="481" type="line"/>
      <point x="422" y="460"/>
      <point x="434" y="439"/>
      <point x="440" y="419" type="curve"/>
      <point x="445" y="398"/>
      <point x="448" y="371"/>
      <point x="448" y="336" type="curve" smooth="yes"/>
      <point x="448" y="324" type="line"/>
      <point x="446" y="169"/>
      <point x="386" y="64"/>
      <point x="303" y="64" type="curve" smooth="yes"/>
      <point x="254" y="64"/>
      <point x="229" y="98"/>
      <point x="229" y="166" type="curve" smooth="yes"/>
      <point x="229" y="404" type="line" smooth="yes"/>
      <point x="229" y="479"/>
      <point x="207" y="510"/>
      <point x="152" y="510" type="curve" smooth="yes"/>
      <point x="117" y="510"/>
      <point x="75" y="486"/>
      <point x="40" y="447" type="curve"/>
      <point x="59" y="421" type="line"/>
      <point x="77" y="435"/>
      <point x="94" y="442"/>
      <point x="109" y="442" type="curve" smooth="yes"/>
      <point x="129" y="442"/>
      <point x="139" y="431"/>
      <point x="139" y="408" type="curve" smooth="yes"/>
      <point x="139" y="166" type="line" smooth="yes"/>
      <point x="139" y="41"/>
      <point x="178" y="-14"/>
      <point x="267" y="-14" type="curve" smooth="yes"/>
      <point x="304" y="-14"/>
      <point x="339" y="0"/>
      <point x="372" y="28" type="curve" smooth="yes"/>
      <point x="405" y="55"/>
      <point x="431" y="91"/>
      <point x="448" y="135" type="curve"/>
      <point x="455" y="32"/>
      <point x="495" y="-14"/>
      <point x="576" y="-14" type="curve" smooth="yes"/>
      <point x="613" y="-14"/>
      <point x="648" y="0"/>
      <point x="681" y="28" type="curve" smooth="yes"/>
      <point x="714" y="55"/>
      <point x="740" y="91"/>
      <point x="757" y="135" type="curve"/>
      <point x="757" y="115"/>
      <point x="757" y="97"/>
    </contour>
  </outline>
</glyph>
<glyph name="tse-cy.loclBGR" format="1">
  <advance width="630"/>
  <outline>
    <contour>
      <point x="502" y="-14" type="curve"/>
      <point x="533" y="-37"/>
      <point x="552" y="-88"/>
      <point x="569" y="-158" type="curve"/>
      <point x="573" y="-180" type="line"/>
      <point x="605" y="-168" type="line"/>
      <point x="605" y="39" type="line"/>
      <point x="552" y="39"/>
      <point x="515" y="58"/>
      <point x="515" y="97" type="curve" smooth="yes"/>
      <point x="515" y="510" type="line"/>
      <point x="393" y="497" type="line"/>
      <point x="381" y="482" type="line"/>
      <point x="393" y="466" type="line"/>
      <point x="408" y="441"/>
      <point x="418" y="414"/>
      <point x="423" y="386" type="curve" smooth="yes"/>
      <point x="429" y="359"/>
      <point x="432" y="320"/>
      <point x="432" y="271" type="curve" smooth="yes"/>
      <point x="432" y="135"/>
      <point x="379" y="53"/>
      <point x="290" y="53" type="curve" smooth="yes"/>
      <point x="227" y="53"/>
      <point x="194" y="95"/>
      <point x="194" y="175" type="curve" smooth="yes"/>
      <point x="194" y="478" type="line" smooth="yes"/>
      <point x="194" y="497"/>
      <point x="181" y="510"/>
      <point x="162" y="510" type="curve" smooth="yes"/>
      <point x="121" y="510"/>
      <point x="65" y="485"/>
      <point x="30" y="450" type="curve"/>
      <point x="39" y="424" type="line"/>
      <point x="83" y="424" type="line" smooth="yes"/>
      <point x="96" y="424"/>
      <point x="103" y="417"/>
      <point x="103" y="402" type="curve" smooth="yes"/>
      <point x="103" y="152" type="line" smooth="yes"/>
      <point x="103" y="47"/>
      <point x="160" y="-14"/>
      <point x="256" y="-14" type="curve" smooth="yes"/>
      <point x="329" y="-14"/>
      <point x="394" y="23"/>
      <point x="425" y="82" type="curve"/>
      <point x="425" y="15"/>
      <point x="449" y="-14"/>
    </contour>
  </outline>
</glyph>
<glyph name="ve-cy.loclBGR" format="1">
  <advance width="571"/>
  <outline>
    <contour>
      <point x="528" y="230" type="curve" smooth="yes"/>
      <point x="528" y="307"/>
      <point x="491" y="399"/>
      <point x="424" y="418" type="curve"/>
      <point x="468" y="442"/>
      <point x="494" y="542"/>
      <point x="494" y="591" type="curve" smooth="yes"/>
      <point x="494" y="678"/>
      <point x="436" y="787"/>
      <point x="275" y="787" type="curve" smooth="yes"/>
      <point x="208" y="787"/>
      <point x="67" y="748"/>
      <point x="67" y="548" type="curve" smooth="yes"/>
      <point x="67" y="200" type="line" smooth="yes"/>
      <point x="67" y="101"/>
      <point x="117" y="-14"/>
      <point x="300" y="-14" type="curve" smooth="yes"/>
      <point x="452" y="-14"/>
      <point x="528" y="97"/>
    </contour>
    <contour>
      <point x="424" y="234" type="curve" smooth="yes"/>
      <point x="424" y="121"/>
      <point x="367" y="36"/>
      <point x="302" y="36" type="curve" smooth="yes"/>
      <point x="217" y="36"/>
      <point x="158" y="63"/>
      <point x="158" y="150" type="curve" smooth="yes"/>
      <point x="158" y="614" type="line" smooth="yes"/>
      <point x="158" y="708"/>
      <point x="223" y="735"/>
      <point x="284" y="735" type="curve" smooth="yes"/>
      <point x="372" y="735"/>
      <point x="396" y="641"/>
      <point x="396" y="582" type="curve" smooth="yes"/>
      <point x="396" y="523"/>
      <point x="364" y="432"/>
      <point x="292" y="432" type="curve" smooth="yes"/>
      <point x="267" y="432"/>
      <point x="210" y="439"/>
      <point x="205" y="439" type="curve" smooth="yes"/>
      <point x="198" y="439"/>
      <point x="194" y="433"/>
      <point x="194" y="421" type="curve" smooth="yes"/>
      <point x="194" y="402"/>
      <point x="267" y="390"/>
      <point x="308" y="390" type="curve" smooth="yes"/>
      <point x="315" y="390" type="line"/>
      <point x="390" y="386"/>
      <point x="424" y="306"/>
    </contour>
  </outline>
</glyph>
<glyph name="verticalbar-cy" format="1">
  <advance width="132"/>
  <outline>
    <contour>
      <point x="52" y="127"/>
      <point x="76" y="132"/>
      <point x="83" y="148" type="curve"/>
      <point x="83" y="367" type="line"/>
      <point x="71" y="367"/>
      <point x="48" y="362"/>
      <point x="41" y="346" type="curve"/>
      <point x="41" y="127" type="line"/>
    </contour>
    <contour>
      <point x="62" y="247" type="move" name="_center"/>
    </contour>
  </outline>
</glyph>
<glyph name="z.alt" format="1">
  <advance width="486"/>
  <outline>
    <contour>
      <point x="412" y="438" type="line"/>
      <point x="439" y="454" type="line"/>
      <point x="439" y="472"/>
      <point x="433" y="485"/>
      <point x="419" y="497" type="curve"/>
      <point x="175" y="497" type="line" smooth="yes"/>
      <point x="114" y="497"/>
      <point x="85" y="502"/>
      <point x="56" y="521" type="curve"/>
      <point x="44" y="509" type="line"/>
      <point x="44" y="355" type="line"/>
      <point x="75" y="344" type="line"/>
      <point x="87" y="397" type="line" smooth="yes"/>
      <point x="95" y="431"/>
      <point x="112" y="439"/>
      <point x="162" y="439" type="curve" smooth="yes"/>
      <point x="307" y="439" type="line"/>
      <point x="123" y="147" type="line"/>
      <point x="131" y="127" type="line"/>
      <point x="149" y="132"/>
      <point x="167" y="134"/>
      <point x="182" y="134" type="curve" smooth="yes"/>
      <point x="307" y="134"/>
      <point x="362" y="51"/>
      <point x="362" y="-31" type="curve" smooth="yes"/>
      <point x="362" y="-108"/>
      <point x="309" y="-184"/>
      <point x="217" y="-184" type="curve" smooth="yes"/>
      <point x="153" y="-184"/>
      <point x="113" y="-141"/>
      <point x="113" y="-80" type="curve" smooth="yes"/>
      <point x="113" y="-4"/>
      <point x="166" y="20"/>
      <point x="166" y="32" type="curve" smooth="yes"/>
      <point x="166" y="36"/>
      <point x="166" y="43"/>
      <point x="147" y="43" type="curve" smooth="yes"/>
      <point x="64" y="43"/>
      <point x="20" y="-16"/>
      <point x="20" y="-78" type="curve" smooth="yes"/>
      <point x="20" y="-158"/>
      <point x="79" y="-242"/>
      <point x="204" y="-242" type="curve" smooth="yes"/>
      <point x="374" y="-242"/>
      <point x="466" y="-126"/>
      <point x="466" y="-18" type="curve" smooth="yes"/>
      <point x="466" y="80"/>
      <point x="396" y="171"/>
      <point x="245" y="171" type="curve"/>
    </contour>
  </outline>
</glyph>
<glyph name="ze-cy.loclBGR" format="1">
  <advance width="478"/>
  <outline>
    <contour>
      <point x="443" y="-22" type="curve" smooth="yes"/>
      <point x="443" y="26" type="line" smooth="yes"/>
      <point x="443" y="83"/>
      <point x="406" y="184"/>
      <point x="323" y="208" type="curve"/>
      <point x="390" y="228"/>
      <point x="424" y="299"/>
      <point x="424" y="358" type="curve" smooth="yes"/>
      <point x="424" y="434"/>
      <point x="362" y="509"/>
      <point x="234" y="509" type="curve" smooth="yes"/>
      <point x="217" y="509"/>
      <point x="195" y="507"/>
      <point x="167" y="502" type="curve" smooth="yes"/>
      <point x="152" y="499"/>
      <point x="141" y="497"/>
      <point x="132" y="497" type="curve" smooth="yes"/>
      <point x="118" y="497"/>
      <point x="106" y="500"/>
      <point x="96" y="507" type="curve"/>
      <point x="80" y="520" type="line"/>
      <point x="67" y="507" type="line"/>
      <point x="67" y="343" type="line"/>
      <point x="96" y="333" type="line"/>
      <point x="103" y="354" type="line" smooth="yes"/>
      <point x="123" y="422"/>
      <point x="166" y="456"/>
      <point x="233" y="456" type="curve" smooth="yes"/>
      <point x="300" y="456"/>
      <point x="337" y="394"/>
      <point x="337" y="351" type="curve" smooth="yes"/>
      <point x="337" y="298"/>
      <point x="311" y="239"/>
      <point x="235" y="227" type="curve" smooth="yes"/>
      <point x="196" y="219"/>
      <point x="182" y="214"/>
      <point x="182" y="199" type="curve" smooth="yes"/>
      <point x="182" y="187"/>
      <point x="189" y="181"/>
      <point x="204" y="181" type="curve" smooth="yes"/>
      <point x="214" y="181" type="line" smooth="yes"/>
      <point x="295" y="178"/>
      <point x="346" y="94"/>
      <point x="346" y="34" type="curve" smooth="yes"/>
      <point x="346" y="-38" type="line" smooth="yes"/>
      <point x="346" y="-153"/>
      <point x="317" y="-226"/>
      <point x="234" y="-226" type="curve" smooth="yes"/>
      <point x="181" y="-226"/>
      <point x="147" y="-186"/>
      <point x="147" y="-133" type="curve"/>
      <point x="142" y="-72"/>
      <point x="195" y="-35"/>
      <point x="196" y="-25" type="curve"/>
      <point x="196" y="-20"/>
      <point x="190" y="-14"/>
      <point x="177" y="-14" type="curve" smooth="yes"/>
      <point x="98" y="-14"/>
      <point x="50" y="-68"/>
      <point x="50" y="-135" type="curve" smooth="yes"/>
      <point x="50" y="-208"/>
      <point x="109" y="-278"/>
      <point x="221" y="-278" type="curve" smooth="yes"/>
      <point x="358" y="-278"/>
      <point x="443" y="-186"/>
    </contour>
  </outline>
</glyph>
